<svg height="512pt" viewBox="-10 0 512 512" width="512pt" xmlns="http://www.w3.org/2000/svg"><path d="m246.386719 456.855469c-95 0-172.015625-77.011719-172.015625-172.015625v-58.6875c0-95.003906 77.011718-172.015625 172.015625-172.015625 95 0 172.015625 77.011719 172.015625 172.015625v58.6875c0 95-77.011719 172.015625-172.015625 172.015625zm0 0" fill="#ffe5d1"/><path d="m246.386719 54.136719c-6.152344 0-12.226563.328125-18.214844.957031 86.441406 9.097656 153.804687 82.207031 153.804687 171.058594v58.6875c0 88.847656-67.363281 161.960937-153.804687 171.058594 5.988281.628906 12.0625.957031 18.214844.957031 95 0 172.015625-77.011719 172.015625-172.015625v-58.6875c0-95.003906-77.011719-172.015625-172.015625-172.015625zm0 0" fill="#fcd3b9"/><path d="m418.402344 201.867188h13.15625c29.617187 0 53.628906 24.007812 53.628906 53.628906 0 29.617187-24.011719 53.628906-53.628906 53.628906h-13.15625zm0 0" fill="#ffe5d1"/><path d="m479.972656 232.410156c.09375 1.277344.15625 2.5625.15625 3.859375 0 29.617188-24.011718 53.628907-53.632812 53.628907h-8.09375v19.222656h13.15625c29.617187 0 53.628906-24.007813 53.628906-53.628906 0-8.261719-1.875-16.089844-5.214844-23.082032zm0 0" fill="#fcd3b9"/><path d="m432.570312 275.730469c11.175782 0 20.238282-9.058594 20.238282-20.234375 0-11.179688-9.0625-20.238282-20.238282-20.238282h-14.167968v40.472657zm0 0" fill="#fcd3b9"/><path d="m74.371094 201.867188h-13.15625c-29.617188 0-53.628906 24.007812-53.628906 53.628906 0 29.617187 24.011718 53.628906 53.628906 53.628906h13.15625zm0 0" fill="#ffe5d1"/><path d="m12.800781 232.410156c-.089843 1.277344-.152343 2.5625-.152343 3.859375 0 29.617188 24.007812 53.628907 53.628906 53.628907h8.09375v19.222656h-13.15625c-29.617188 0-53.628906-24.007813-53.628906-53.628906.003906-8.261719 1.875-16.089844 5.214843-23.082032zm0 0" fill="#fcd3b9"/><path d="m60.203125 275.730469c-11.175781 0-20.234375-9.058594-20.234375-20.234375 0-11.179688 9.058594-20.238282 20.234375-20.238282h14.167969v40.472657zm0 0" fill="#fcd3b9"/><path d="m217.042969 431.378906h58.6875v58.6875h-58.6875zm0 0" fill="#88e9ff"/><path d="m260.554688 431.378906v32.378906c0 5.589844-4.53125 10.121094-10.121094 10.121094h-33.390625v16.1875h58.6875v-58.6875zm0 0" fill="#2dd3f9"/><path d="m275.730469 431.378906 85.628906-14.140625c11.082031-1.832031 20.0625 8.902344 16.304687 19.488281-1.71875 4.847657-.792968 10.242188 2.453126 14.234376l.371093.460937c4.40625 5.417969 4.40625 13.183594 0 18.601563l-.371093.460937c-3.246094 3.992187-4.175782 9.386719-2.453126 14.234375 3.757813 10.585938-5.222656 21.316406-16.304687 19.488281l-85.628906-14.140625zm0 0" fill="#88e9ff"/><path d="m380.488281 451.417969-.382812-.472657c-3.296875-4.054687-4.035157-9.496093-2.363281-14.445312 3.550781-10.511719-5.382813-21.078125-16.382813-19.261719l-8.800781 1.453125c6.207031 3.25 9.785156 10.800782 7.023437 18.242188-1.761719 4.753906-.660156 10.101562 2.535157 14.035156l.367187.449219c4.40625 5.421875 4.40625 13.1875 0 18.605469l-.371094.457031c-1.648437 1.910156-2.480469 4.097656-2.839843 6.214843-.835938 4.914063-5.484376 8.226563-10.402344 7.414063l-73.140625-12.078125v18.035156l85.628906 14.136719c1.074219.179687 2.074219.238281 3 .195313 9.671875-.34375 16.78125-10.164063 13.257813-19.816407-1.75-4.785156-.710938-10.148437 2.5-14.101562l.375-.457031c4.402343-5.417969 4.402343-13.183594-.003907-18.605469zm0 0" fill="#2dd3f9"/><path d="m217.042969 431.378906-85.628907-14.140625c-11.078124-1.832031-20.058593 8.902344-16.304687 19.488281 1.71875 4.847657.792969 10.242188-2.453125 14.234376l-.371094.460937c-4.40625 5.417969-4.40625 13.183594 0 18.601563l.371094.460937c3.246094 3.992187 4.175781 9.386719 2.453125 14.234375-3.753906 10.585938 5.226563 21.316406 16.304687 19.488281l85.628907-14.140625zm0 0" fill="#88e9ff"/><path d="m199.039062 428.402344v31.097656c0 9.902344-7.167968 18.351562-16.941406 19.96875l-50.679687 8.367188c-6.71875 1.109374-12.660157-2.402344-15.464844-7.695313-.035156 1.539063-.3125 3.082031-.84375 4.578125-3.753906 10.582031 5.226563 21.316406 16.308594 19.484375l85.625-14.136719v-58.6875zm0 0" fill="#2dd3f9"/><path d="m130.117188 109.882812c18.164062-18.15625 40.34375-31.804687 64.53125-39.820312 6.816406 22.097656 27.429687 38.207031 51.738281 38.207031 24.308593 0 44.925781-16.109375 51.742187-38.207031 24.183594 8.011719 46.363282 21.664062 64.53125 39.820312 1.480469 1.480469 3.421875 2.222657 5.363282 2.222657 1.945312 0 3.886718-.742188 5.371093-2.226563 2.960938-2.964844 2.960938-7.769531-.003906-10.730468-20.4375-20.429688-45.53125-35.652344-72.882813-44.285157 0-.246093.015626-.484375.015626-.726562 0-17.019531-13.84375-30.863281-30.859376-30.863281-14.445312 0-26.601562 9.980468-29.945312 23.402343-10.863281.398438-21.613281 1.785157-32.128906 4.105469 1.703125-19.914062 18.445312-35.601562 38.796875-35.601562 4.191406 0 7.589843-3.398438 7.589843-7.589844s-3.398437-7.589844-7.589843-7.589844c-29.851563 0-54.132813 24.285156-54.132813 54.136719 0 .242187.011719.480469.015625.726562-27.355469 8.632813-52.449219 23.859375-72.882812 44.285157-2.964844 2.960937-2.964844 7.765624-.003907 10.730468 2.964844 2.964844 7.769532 2.96875 10.734376.003906zm139.542968-71.433593c7.476563 0 13.738282 5.265625 15.300782 12.28125-9.5625-2.097657-19.3125-3.40625-29.160157-3.914063 2.632813-4.96875 7.855469-8.367187 13.859375-8.367187zm-23.273437 23.273437c12.570312 0 25.019531 1.433594 37.117187 4.234375-5.015625 15.71875-19.757812 27.132813-37.117187 27.132813s-32.101563-11.417969-37.117188-27.136719c12.097657-2.796875 24.546875-4.230469 37.117188-4.230469zm0 0"/><path d="m431.558594 194.277344h-8.417969c-3.929687-21.875-11.875-42.882813-23.566406-61.933594-2.191407-3.574219-6.867188-4.691406-10.433594-2.5-3.574219 2.191406-4.695313 6.867188-2.5 10.4375 15.8125 25.777344 24.175781 55.472656 24.175781 85.871094v58.6875c0 49.019531-21.554687 94.9375-59.183594 126.3125l-76.519531 12.636718h-57.449219l-76.519531-12.636718c-37.632812-31.375-59.183593-77.292969-59.183593-126.3125v-58.6875c0-30.398438 8.359374-60.09375 24.175781-85.871094 2.191406-3.570312 1.074219-8.246094-2.5-10.4375-3.570313-2.191406-8.246094-1.074219-10.4375 2.5-11.6875 19.050781-19.636719 40.058594-23.5625 61.933594h-8.417969c-33.753906 0-61.21875 27.460937-61.21875 61.21875 0 33.753906 27.464844 61.21875 61.21875 61.21875h8.402344c6.425781 35.914062 23.636718 68.972656 49.636718 94.980468-3.34375 1.632813-6.289062 4.089844-8.503906 7.226563-4.234375 5.996094-5.253906 13.410156-2.792968 20.339844.828124 2.339843.375 4.988281-1.191407 6.914062l-.375.457031c-6.632812 8.164063-6.632812 20.015626 0 28.175782l.375.460937c1.5625 1.925781 2.019531 4.574219 1.191407 6.910157-2.460938 6.933593-1.441407 14.347656 2.792968 20.339843 4.191406 5.9375 10.988282 9.480469 18.1875 9.480469 1.230469 0 2.480469-.105469 3.710938-.308594l85.011718-14.039062h57.449219l85.007813 14.039062c1.230468.207032 2.480468.308594 3.714844.308594 7.195312 0 13.996093-3.542969 18.1875-9.480469 4.234374-5.992187 5.25-13.40625 2.792968-20.339843-.832031-2.335938-.375-4.984376 1.191406-6.910157l.371094-.460937c6.636719-8.160156 6.636719-20.011719.003906-28.175782l-.375-.457031c-1.566406-1.925781-2.023437-4.574219-1.191406-6.914062 2.460938-6.929688 1.441406-14.34375-2.792968-20.339844-2.214844-3.136719-5.160157-5.59375-8.503907-7.226563 26-26.007812 43.210938-59.066406 49.636719-94.980468h8.402344c33.753906 0 61.21875-27.464844 61.21875-61.21875 0-33.757813-27.464844-61.21875-61.21875-61.21875zm-364.777344 73.867187h-6.578125c-6.972656 0-12.644531-5.675781-12.644531-12.648437 0-6.976563 5.671875-12.648438 12.644531-12.648438h6.578125zm0-41.992187v1.515625h-6.578125c-15.339844 0-27.824219 12.484375-27.824219 27.828125s12.484375 27.824218 27.824219 27.824218h6.578125v18.214844h-5.5625c-25.386719 0-46.042969-20.652344-46.042969-46.039062 0-25.386719 20.652344-46.042969 46.042969-46.042969h5.5625zm142.671875 257.472656-79.273437 13.09375c-2.789063.453125-5.417969-.667969-7.03125-2.953125-.792969-1.125-1.964844-3.464844-.886719-6.511719 2.589843-7.292968 1.164062-15.550781-3.714844-21.558594l-.371094-.460937c-2.128906-2.617187-2.128906-6.414063 0-9.03125l.371094-.457031c4.878906-6.007813 6.304687-14.265625 3.714844-21.558594-1.078125-3.042969.09375-5.386719.886719-6.507812 1.371093-1.945313 3.480468-3.058594 5.789062-3.058594.40625 0 .824219.035156 1.242188.105468l6.386718 1.054688c.023438.003906.046875.003906.070313.007812l72.816406 12.027344zm58.6875-1.148438h-43.507813v-43.511718h43.507813zm106.085937-26.730468.375.460937c2.125 2.617188 2.125 6.414063-.003906 9.03125l-.371094.457031c-4.878906 6.007813-6.300781 14.269532-3.714843 21.558594 1.078125 3.042969-.089844 5.386719-.886719 6.511719-1.613281 2.285156-4.242188 3.410156-7.03125 2.953125l-79.273438-13.09375v-45.808594l72.820313-12.027344c.019531-.003906.042969-.003906.066406-.007812l6.386719-1.054688c2.785156-.457031 5.417969.667969 7.035156 2.953126.792969 1.125 1.960938 3.464843.882813 6.507812-2.585938 7.292969-1.164063 15.554688 3.714843 21.558594zm51.765626-212.898438h6.578124c6.972657 0 12.648438 5.671875 12.648438 12.648438 0 6.972656-5.675781 12.648437-12.648438 12.648437h-6.578124zm5.566406 58.6875h-5.566406v-18.214844h6.578124c15.34375 0 27.824219-12.480468 27.824219-27.824218s-12.480469-27.828125-27.824219-27.828125h-6.578124v-18.214844h5.566406c25.386718 0 46.039062 20.65625 46.039062 46.042969 0 25.386718-20.652344 46.039062-46.039062 46.039062zm0 0"/><path d="m367.808594 239.8125c-4.191406 0-7.585938 3.394531-7.585938 7.585938 0 14.789062-12.03125 26.816406-26.816406 26.816406s-26.8125-12.03125-26.8125-26.816406c0-4.191407-3.398438-7.585938-7.589844-7.585938s-7.589844 3.394531-7.589844 7.585938c0 23.15625 18.839844 41.992187 41.992188 41.992187 23.15625 0 41.992188-18.835937 41.992188-41.992187 0-4.191407-3.394532-7.585938-7.589844-7.585938zm0 0"/><path d="m186.179688 247.398438c0 14.789062-12.027344 26.816406-26.8125 26.816406-14.785157 0-26.8125-12.03125-26.8125-26.816406 0-4.191407-3.398438-7.585938-7.589844-7.585938s-7.589844 3.394531-7.589844 7.585938c0 23.15625 18.839844 41.992187 41.992188 41.992187 23.152343 0 41.992187-18.835937 41.992187-41.992187 0-4.191407-3.398437-7.585938-7.589844-7.585938-4.191406 0-7.589843 3.394531-7.589843 7.585938zm0 0"/><path d="m267.128906 331.386719c0 11.4375-9.304687 20.742187-20.742187 20.742187s-20.742188-9.304687-20.742188-20.742187c0-4.195313-3.398437-7.589844-7.589843-7.589844-4.191407 0-7.589844 3.394531-7.589844 7.589844 0 19.804687 16.113281 35.917969 35.921875 35.917969 19.808593 0 35.921875-16.113282 35.921875-35.917969 0-4.195313-3.398438-7.589844-7.589844-7.589844s-7.589844 3.394531-7.589844 7.589844zm0 0"/></svg>