<svg height="512pt" viewBox="0 -4 512.001 512" width="512pt" xmlns="http://www.w3.org/2000/svg"><path d="m256 496.753906c-98.707031 0-178.726562-80.015625-178.726562-178.726562v-60.976563c0-98.707031 80.019531-178.726562 178.726562-178.726562s178.726562 80.019531 178.726562 178.726562v60.976563c0 98.710937-80.019531 178.726562-178.726562 178.726562zm0 0" fill="#ffe5d1"/><path d="m256 78.324219c-6.394531 0-12.703125.34375-18.925781.996093 89.8125 9.453126 159.804687 85.414063 159.804687 177.730469v60.980469c0 92.3125-69.992187 168.273438-159.804687 177.726562 6.222656.65625 12.53125 1 18.925781 1 98.707031 0 178.726562-80.019531 178.726562-178.726562v-60.980469c0-98.707031-80.019531-178.726562-178.726562-178.726562zm0 0" fill="#fcd3b9"/><path d="m434.726562 231.820312h13.667969c30.773438 0 55.71875 24.945313 55.71875 55.71875 0 30.777344-24.945312 55.722657-55.71875 55.722657h-13.667969zm0 0" fill="#ffe5d1"/><path d="m498.699219 263.558594c.09375 1.324218.160156 2.65625.160156 4.007812 0 30.773438-24.949219 55.71875-55.722656 55.71875h-8.410157v19.976563h13.667969c30.773438 0 55.71875-24.945313 55.71875-55.722657 0-8.585937-1.945312-16.71875-5.414062-23.980468zm0 0" fill="#fcd3b9"/><path d="m449.445312 308.566406c11.613282 0 21.027344-9.414062 21.027344-21.027344 0-11.613281-9.414062-21.027343-21.027344-21.027343h-14.71875v42.054687zm0 0" fill="#fcd3b9"/><path d="m77.273438 231.820312h-13.667969c-30.773438 0-55.71875 24.945313-55.71875 55.71875 0 30.777344 24.945312 55.722657 55.71875 55.722657h13.667969zm0 0" fill="#ffe5d1"/><path d="m13.300781 263.558594c-.09375 1.324218-.160156 2.65625-.160156 4.007812 0 30.773438 24.949219 55.71875 55.722656 55.71875h8.410157v19.976563h-13.667969c-30.773438 0-55.71875-24.945313-55.71875-55.722657 0-8.585937 1.945312-16.71875 5.414062-23.980468zm0 0" fill="#fcd3b9"/><path d="m62.554688 308.566406c-11.613282 0-21.027344-9.414062-21.027344-21.027344 0-11.613281 9.414062-21.027343 21.027344-21.027343h14.71875v42.054687zm0 0" fill="#fcd3b9"/><path d="m286.488281 40.476562 88.96875-14.691406c11.511719-1.902344 20.84375 9.25 16.941407 20.246094-1.789063 5.039062-.824219 10.640625 2.546874 14.792969l.390626.472656c4.574218 5.632813 4.574218 13.699219 0 19.332031l-.390626.476563c-3.371093 4.148437-4.335937 9.753906-2.546874 14.789062 3.902343 11-5.429688 22.148438-16.941407 20.25l-88.96875-14.691406zm0 0" fill="#ff5c64"/><path d="m395.335938 61.296875-.402344-.492187c-3.421875-4.210938-4.191406-9.863282-2.457032-15.007813 3.691407-10.921875-5.589843-21.902344-17.023437-20.015625l-9.140625 1.511719c6.449219 3.375 10.164062 11.222656 7.296875 18.953125-1.832031 4.9375-.6875 10.496094 2.636719 14.582031l.378906.46875c4.578125 5.632813 4.578125 13.699219 0 19.332031l-.386719.476563c-1.710937 1.980469-2.574219 4.253906-2.949219 6.457031-.867187 5.105469-5.699218 8.542969-10.808593 7.699219l-27.382813-4.519531c.1875-6.757813-1.050781-13.515626-3.683594-19.777344 5.03125-11.957032 5.019532-25.710938-.4375-37.835938l-44.488281 7.34375v60.980469l38.488281 6.355469 50.476563 8.335937c1.117187.183594 2.15625.246094 3.117187.199219 10.050782-.355469 17.4375-10.558594 13.773438-20.589844-1.8125-4.96875-.738281-10.542968 2.601562-14.648437l.386719-.476563c4.578125-5.628906 4.578125-13.699218.003907-19.332031zm0 0" fill="#ff2444"/><path d="m225.511719 40.476562-88.96875-14.691406c-11.511719-1.902344-20.84375 9.25-16.941407 20.246094 1.789063 5.039062.824219 10.644531-2.546874 14.792969l-.390626.476562c-4.574218 5.628907-4.574218 13.699219 0 19.328125l.390626.476563c3.371093 4.148437 4.335937 9.753906 2.546874 14.792969-3.902343 10.996093 5.429688 22.148437 16.941407 20.246093l88.96875-14.691406zm0 0" fill="#ff5c64"/><path d="m181.023438 33.128906c-5.457032 12.125-5.46875 25.878906-.4375 37.835938-2.859376 6.796875-4.085938 14.171875-3.613282 21.496094l-40.425781 6.675781c-6.984375 1.15625-13.15625-2.496094-16.066406-7.996094-.039063 1.601563-.328125 3.207031-.878907 4.757813-3.902343 11 5.429688 22.148437 16.945313 20.25l88.964844-14.695313v-60.976563zm0 0" fill="#ff2444"/><path d="m306.605469 70.964844c8.074219-8.214844 10.0625-21.082032 4.023437-31.539063-6.039062-10.460937-18.175781-15.171875-29.324218-12.289062-3.078126-11.09375-13.226563-19.25-25.304688-19.25s-22.226562 8.15625-25.304688 19.25c-11.148437-2.882813-23.285156 1.828125-29.324218 12.289062-6.039063 10.457031-4.050782 23.324219 4.023437 31.539063-8.074219 8.214844-10.0625 21.082031-4.023437 31.539062 6.039062 10.460938 18.175781 15.171875 29.324218 12.289063 3.078126 11.097656 13.226563 19.253906 25.304688 19.253906s22.226562-8.15625 25.304688-19.253906c11.148437 2.882812 23.285156-1.828125 29.324218-12.289063 6.039063-10.457031 4.050782-23.324218-4.023437-31.539062zm0 0" fill="#ff5c64"/><path d="m277.027344 70.964844c0 11.613281-9.414063 21.027344-21.027344 21.027344s-21.027344-9.414063-21.027344-21.027344c0-11.613282 9.414063-21.027344 21.027344-21.027344s21.027344 9.414062 21.027344 21.027344zm0 0" fill="#ffe266"/><path d="m106.449219 158.832031c1.398437 1.011719 3.011719 1.496094 4.613281 1.496094 2.445312 0 4.855469-1.132813 6.398438-3.265625 5.328124-7.375 11.296874-14.378906 17.734374-20.816406 5.203126-5.203125 10.828126-10.113282 16.714844-14.648438l48.203125-7.957031c6.3125 6.226563 14.933594 9.871094 24.019531 9.871094.519532 0 1.035157-.011719 1.550782-.035157 5.785156 11.132813 17.425781 18.453126 30.316406 18.453126s24.53125-7.320313 30.316406-18.453126c.515625.023438 1.03125.035157 1.546875.035157h.003907c9.085937 0 17.703124-3.644531 24.019531-9.871094l48.203125 7.957031c5.886718 4.535156 11.511718 9.445313 16.714844 14.648438 6.433593 6.4375 12.402343 13.441406 17.734374 20.816406 1.542969 2.132812 3.953126 3.265625 6.398438 3.265625 1.601562 0 3.214844-.484375 4.613281-1.496094 3.527344-2.550781 4.320313-7.480469 1.769531-11.007812-5.824218-8.050781-12.335937-15.699219-19.363281-22.730469-.742187-.742188-1.515625-1.457031-2.269531-2.1875 2.621094-.925781 5.085938-2.316406 7.253906-4.160156 5.242188-4.445313 8.246094-10.894532 8.246094-17.691406 0-2.65625-.457031-5.285157-1.355469-7.800782-.863281-2.425781-.390625-5.175781 1.253907-7.199218l.363281-.453126c6.894531-8.480468 6.894531-20.792968.027343-29.242187l-.417968-.515625c-1.070313-1.3125-1.65625-2.976562-1.65625-4.683594 0-.847656.144531-1.691406.429687-2.496094 2.769531-7.816406 1.25-16.28125-4.070312-22.644531-5.324219-6.371093-13.394531-9.367187-21.59375-8.019531l-62.28125 10.289062c-6.3125-6.226562-14.933594-9.871093-24.019531-9.871093-.519532 0-1.035157.011719-1.550782.035156-5.785156-11.132813-17.425781-18.453125-30.316406-18.453125s-24.53125 7.320312-30.316406 18.453125c-.515625-.023437-1.03125-.035156-1.550782-.035156-9.085937 0-17.703124 3.648437-24.019531 9.871093l-62.277343-10.277343c-8.191407-1.355469-16.261719 1.636719-21.589844 8s-6.851563 14.832031-4.082032 22.636719c.289063.820312.433594 1.664062.433594 2.507812 0 1.707031-.589844 3.371094-1.6875 4.722656l-.359375.449219c-6.898437 8.480469-6.898437 20.792969-.03125 29.238281l.417969.515625c1.621094 1.996094 2.09375 4.75 1.238281 7.164063-.90625 2.535156-1.363281 5.164062-1.363281 7.816406 0 6.792969 3.003906 13.238281 8.242188 17.683594 2.171874 1.839844 4.632812 3.234375 7.257812 4.160156-.757812.726562-1.527344 1.445312-2.269531 2.1875-7.027344 7.03125-13.542969 14.679688-19.363281 22.730469-2.550782 3.527343-1.757813 8.457031 1.769531 11.007812zm270.28125-125.273437c3.789062-.625 6.113281 1.59375 6.933593 2.574218.816407.980469 2.585938 3.648438 1.300782 7.273438-.886719 2.503906-1.332032 5.113281-1.332032 7.753906 0 5.320313 1.84375 10.519532 5.167969 14.601563l.414063.515625c2.207031 2.714844 2.207031 6.660156-.023438 9.40625l-.367187.457031c-5.066407 6.234375-6.542969 14.816406-3.851563 22.40625.296875.824219.445313 1.667969.445313 2.507813 0 2.160156-.976563 4.226562-2.679688 5.667968-.96875.824219-3.03125 2.128906-6.003906 1.640625l-12.101563-2c-.054687-.007812-.109374-.015625-.164062-.023437l-43.875-7.242188c2.792969-9.46875 1.367188-19.785156-3.960938-28.132812 5.328126-8.347656 6.753907-18.664063 3.957032-28.132813zm-152.597657.632812c1.550782 0 3.09375.195313 4.589844.582032 4.160156 1.078124 8.421875-1.382813 9.570313-5.527344 2.203125-7.933594 9.484375-13.476563 17.707031-13.476563s15.503906 5.542969 17.703125 13.476563c1.152344 4.144531 5.410156 6.605468 9.574219 5.527344 1.496094-.386719 3.039062-.582032 4.589844-.582032 6.558593 0 12.664062 3.515625 15.933593 9.175782 4.109375 7.125 2.953125 16.199218-2.820312 22.074218-3.011719 3.066406-3.011719 7.984375 0 11.050782 5.773437 5.875 6.929687 14.949218 2.820312 22.070312-3.269531 5.660156-9.375 9.179688-15.933593 9.179688-1.550782 0-3.09375-.195313-4.589844-.582032-4.164063-1.078125-8.421875 1.382813-9.574219 5.527344-2.199219 7.933594-9.480469 13.472656-17.703125 13.472656s-15.503906-5.539062-17.707031-13.472656c-.964844-3.488281-4.132813-5.78125-7.59375-5.78125-.652344 0-1.316407.082031-1.976563.253906-1.496094.386719-3.039062.582032-4.589844.582032-6.558593 0-12.664062-3.515626-15.933593-9.175782-4.109375-7.125-2.953125-16.199218 2.816406-22.074218 3.015625-3.066407 3.015625-7.984376 0-11.050782-5.769531-5.875-6.925781-14.949218-2.816406-22.070312 3.269531-5.664063 9.375-9.179688 15.933593-9.179688zm-101.347656 41.460938c-2.207031-2.714844-2.207031-6.65625.027344-9.410156l.359375-.445313c3.351563-4.117187 5.195313-9.316406 5.195313-14.640625 0-2.632812-.445313-5.242188-1.335938-7.765625-1.28125-3.609375.488281-6.277344 1.304688-7.257813.820312-.976562 3.140624-3.183593 6.925781-2.566406l56.144531 9.269532c-2.796875 9.464843-1.367188 19.78125 3.960938 28.128906-5.328126 8.34375-6.753907 18.660156-3.960938 28.128906l-56.140625 9.265625c-2.972656.488281-5.039063-.816406-6.007813-1.640625-1.703124-1.441406-2.675781-3.503906-2.675781-5.65625 0-.839844.148438-1.683594.449219-2.527344 2.6875-7.582031 1.207031-16.164062-3.828125-22.363281zm0 0"/><path d="m448.394531 223.933594h-8.714843c-2.308594-12.886719-5.964844-25.484375-10.976563-37.6875-1.652344-4.03125-6.257813-5.953125-10.289063-4.300782-4.027343 1.652344-5.953124 6.257813-4.300781 10.285157 8.445313 20.574219 12.726563 42.382812 12.726563 64.820312v60.976563c0 94.203125-76.640625 170.84375-170.839844 170.84375-94.203125 0-170.84375-76.640625-170.84375-170.84375v-60.976563c0-22.4375 4.28125-44.246093 12.726562-64.820312 1.652344-4.027344-.273437-8.632813-4.300781-10.285157-4.03125-1.660156-8.636719.269532-10.289062 4.300782-5.007813 12.203125-8.664063 24.800781-10.972657 37.6875h-8.714843c-35.074219 0-63.605469 28.535156-63.605469 63.605468 0 35.074219 28.53125 63.609376 63.605469 63.609376h8.726562c15.675781 87.152343 92.070313 153.492187 183.667969 153.492187s167.992188-66.339844 183.667969-153.496094h8.726562c35.074219 0 63.605469-28.53125 63.605469-63.605469 0-35.070312-28.535156-63.605468-63.605469-63.605468zm-379.007812 76.746094h-6.832031c-7.246094 0-13.144532-5.894532-13.144532-13.140626 0-7.246093 5.898438-13.140624 13.144532-13.140624h6.832031zm0 34.695312h-5.78125c-26.375 0-47.835938-21.457031-47.835938-47.835938 0-26.375 21.460938-47.835937 47.835938-47.835937h5.78125v18.925781h-6.832031c-15.941407 0-28.914063 12.96875-28.914063 28.910156 0 15.941407 12.972656 28.914063 28.914063 28.914063h6.832031zm373.226562-60.976562h6.832031c7.246094 0 13.144532 5.894531 13.144532 13.140624 0 7.246094-5.898438 13.144532-13.144532 13.144532h-6.832031zm5.78125 60.976562h-5.78125v-18.921875h6.832031c15.941407 0 28.914063-12.972656 28.914063-28.914063 0-15.941406-12.972656-28.910156-28.914063-28.910156h-6.832031v-18.925781h5.78125c26.375 0 47.835938 21.460937 47.835938 47.835937 0 26.378907-21.460938 47.835938-47.835938 47.835938zm0 0"/><path d="m346.414062 322.757812c24.058594 0 43.632813-19.570312 43.632813-43.628906 0-4.355468-3.53125-7.882812-7.886719-7.882812-4.355468 0-7.886718 3.527344-7.886718 7.882812 0 15.363282-12.496094 27.859375-27.859376 27.859375-15.359374 0-27.859374-12.496093-27.859374-27.859375 0-4.355468-3.53125-7.882812-7.882813-7.882812-4.355469 0-7.886719 3.527344-7.886719 7.882812 0 24.058594 19.570313 43.628906 43.628906 43.628906zm0 0"/><path d="m193.445312 279.128906c0 15.363282-12.496093 27.859375-27.859374 27.859375-15.363282 0-27.859376-12.496093-27.859376-27.859375 0-4.355468-3.53125-7.882812-7.886718-7.882812-4.355469 0-7.882813 3.527344-7.882813 7.882812 0 24.058594 19.570313 43.628906 43.628907 43.628906 24.058593 0 43.628906-19.570312 43.628906-43.628906 0-4.355468-3.527344-7.882812-7.882813-7.882812s-7.886719 3.527344-7.886719 7.882812zm0 0"/><path d="m256 403.710938c20.578125 0 37.320312-16.742188 37.320312-37.320313 0-4.355469-3.527343-7.886719-7.882812-7.886719s-7.886719 3.53125-7.886719 7.886719c0 11.882813-9.667969 21.550781-21.550781 21.550781s-21.550781-9.667968-21.550781-21.550781c0-4.355469-3.53125-7.886719-7.886719-7.886719s-7.882812 3.53125-7.882812 7.886719c0 20.578125 16.742187 37.320313 37.320312 37.320313zm0 0"/><path d="m240.757812 192.921875c0-4.355469-3.53125-7.886719-7.886718-7.886719-11.882813 0-21.550782-9.667968-21.550782-21.550781 0-4.355469-3.53125-7.886719-7.886718-7.886719-4.355469 0-7.882813 3.53125-7.882813 7.886719 0 20.578125 16.742188 37.320313 37.320313 37.320313 4.355468 0 7.886718-3.527344 7.886718-7.882813zm0 0"/><path d="m285.4375 185.035156c-11.882812 0-21.550781-9.667968-21.550781-21.550781 0-4.355469-3.53125-7.886719-7.886719-7.886719s-7.886719 3.53125-7.886719 7.886719c0 20.578125 16.742188 37.320313 37.324219 37.320313 4.355469 0 7.882812-3.527344 7.882812-7.882813s-3.527343-7.886719-7.882812-7.886719zm0 0"/><path d="m338.003906 200.804688c4.355469 0 7.886719-3.527344 7.886719-7.882813s-3.53125-7.886719-7.886719-7.886719c-11.882812 0-21.550781-9.667968-21.550781-21.550781 0-4.355469-3.53125-7.886719-7.886719-7.886719-4.355468 0-7.882812 3.53125-7.882812 7.886719 0 20.578125 16.742187 37.320313 37.320312 37.320313zm0 0"/><path d="m256 99.875c15.941406 0 28.910156-12.96875 28.910156-28.910156s-12.96875-28.910156-28.910156-28.910156-28.910156 12.96875-28.910156 28.910156 12.96875 28.910156 28.910156 28.910156zm0-42.050781c7.246094 0 13.140625 5.894531 13.140625 13.140625s-5.894531 13.140625-13.140625 13.140625-13.140625-5.894531-13.140625-13.140625 5.894531-13.140625 13.140625-13.140625zm0 0"/></svg>