<?xml version="1.0" encoding="iso-8859-1"?>
<!-- Generator: Adobe Illustrator 19.0.0, SVG Export Plug-In . SVG Version: 6.00 Build 0)  -->
<svg version="1.1" id="Layer_1" xmlns="http://www.w3.org/2000/svg" xmlns:xlink="http://www.w3.org/1999/xlink" x="0px" y="0px"
	 viewBox="0 0 512 512" style="enable-background:new 0 0 512 512;" xml:space="preserve">
<path style="fill:#1F84CE;" d="M256,8.039L256,8.039c-91.169,0-165.076,73.907-165.076,165.076v165.77
	c0,91.17,73.907,165.076,165.076,165.076l0,0c91.17,0,165.076-73.906,165.076-165.076v-165.77
	C421.076,81.946,347.17,8.039,256,8.039z"/>
<path style="opacity:0.3;fill:#145587;enable-background:new    ;" d="M278.605,274.223l66.754-69.292c6-6.227,6-16.084,0-22.31
	l-77.502-80.45c-4.551-4.722-11.513-6.207-17.593-3.756c-6.082,2.453-10.064,8.353-10.064,14.911v121.029l-50.4-52.314
	c-6.16-6.392-16.338-6.585-22.735-0.424c-6.395,6.161-6.585,16.339-0.423,22.735l67.31,69.869l-67.31,69.869
	c-6.16,6.396-5.971,16.574,0.423,22.735c3.119,3.006,7.139,4.499,11.153,4.499c4.216,0,8.425-1.648,11.582-4.923l50.4-52.314
	v121.029c0,6.558,3.982,12.459,10.064,14.911c1.949,0.786,3.989,1.168,6.01,1.168c4.286-0.001,8.492-1.716,11.583-4.924
	l77.502-80.449c6-6.227,6-16.084,0-22.311L278.605,274.223z M272.357,153.192l39.096,40.583l-39.096,40.583L272.357,153.192
	L272.357,153.192z M272.357,395.253v-81.167l39.096,40.583L272.357,395.253z"/>
<path style="fill:#FFFFFF;" d="M278.605,256l66.754-69.292c6-6.227,6-16.084,0-22.31l-77.502-80.45
	c-4.551-4.722-11.513-6.207-17.593-3.756c-6.082,2.453-10.064,8.353-10.064,14.911v121.029l-50.4-52.314
	c-6.16-6.392-16.338-6.585-22.735-0.424c-6.395,6.161-6.585,16.339-0.423,22.735l67.31,69.869l-67.31,69.869
	c-6.16,6.396-5.971,16.574,0.423,22.735c3.119,3.006,7.139,4.499,11.153,4.499c4.216,0,8.425-1.648,11.582-4.923l50.4-52.314
	v121.029c0,6.558,3.982,12.459,10.064,14.911c1.949,0.786,3.989,1.168,6.01,1.168c4.286-0.001,8.492-1.715,11.583-4.924
	l77.502-80.449c6-6.227,6-16.084,0-22.311L278.605,256z M272.357,134.97l39.096,40.583l-39.096,40.583L272.357,134.97
	L272.357,134.97z M272.357,377.03v-81.167l39.096,40.583L272.357,377.03z"/>
<path d="M264.318,295.865v81.167c0,3.279,1.991,6.229,5.032,7.455c0.975,0.393,1.994,0.584,3.006,0.584
	c2.143,0,4.246-0.858,5.792-2.462l39.096-40.583c2.999-3.113,2.999-8.042,0-11.154l-39.096-40.583
	c-2.274-2.359-5.754-3.103-8.797-1.879C266.309,289.635,264.318,292.586,264.318,295.865z M280.397,315.797l19.894,20.651
	l-19.894,20.651V315.797z M278.147,129.392c-2.274-2.36-5.754-3.102-8.797-1.879c-3.041,1.227-5.032,4.177-5.032,7.456v81.167
	c0,3.279,1.991,6.23,5.032,7.456c0.975,0.392,1.994,0.583,3.006,0.583c2.143,0,4.246-0.858,5.792-2.462l39.096-40.583
	c2.999-3.113,2.999-8.042,0-11.154L278.147,129.392z M280.397,196.203v-41.3l19.894,20.651L280.397,196.203z M256,0
	C160.543,0,82.885,77.658,82.885,173.115v165.77C82.885,434.342,160.543,512,256,512s173.115-77.658,173.115-173.115v-165.77
	C429.115,77.658,351.457,0,256,0z M413.036,338.885c0,86.59-70.447,157.036-157.036,157.036S98.964,425.475,98.964,338.885v-165.77
	c0-86.59,70.447-157.036,157.036-157.036s157.036,70.447,157.036,157.036V338.885z M351.149,158.821l-77.503-80.452
	c-4.523-4.692-10.855-7.383-17.374-7.383c-3.101,0-6.136,0.59-9.015,1.75c-9.171,3.698-15.097,12.479-15.097,22.368v101.097
	L195.59,158.24c-4.588-4.759-10.758-7.382-17.37-7.382c-6.272,0-12.213,2.396-16.732,6.748c-9.575,9.226-9.861,24.524-0.636,34.102
	l61.937,64.292l-61.937,64.29c-9.226,9.579-8.94,24.876,0.637,34.103c4.517,4.352,10.459,6.749,16.731,6.749
	c6.614,0,12.783-2.622,17.372-7.386l36.57-37.959v101.098c0,9.89,5.926,18.67,15.096,22.367c2.881,1.163,5.916,1.753,9.018,1.753
	c0.001,0,0.001,0,0.001,0c6.52-0.001,12.852-2.694,17.372-7.387l77.502-80.449c9.039-9.382,9.039-24.084,0-33.466l-61.381-63.714
	l61.381-63.714C360.188,182.903,360.188,168.202,351.149,158.821z M339.569,181.132l-66.754,69.292
	c-2.999,3.113-2.999,8.042,0,11.154l66.754,69.292c3.013,3.128,3.013,8.029,0,11.157l-77.503,80.449
	c-2.219,2.304-5.806,3.083-8.796,1.877c-3.056-1.232-5.031-4.159-5.031-7.455v-121.03c0-3.279-1.991-6.229-5.032-7.455
	c-0.974-0.393-1.995-0.584-3.006-0.584c-2.143,0-4.246,0.858-5.792,2.462l-50.398,52.313c-1.531,1.589-3.588,2.462-5.793,2.462
	c-2.09,0-4.07-0.799-5.575-2.25c-3.193-3.075-3.288-8.176-0.212-11.368l67.31-69.869c2.999-3.113,2.999-8.042,0-11.154
	l-67.31-69.869c-3.075-3.193-2.98-8.292,0.21-11.367c1.506-1.451,3.487-2.25,5.577-2.25c2.206,0,4.263,0.874,5.792,2.46
	l50.399,52.314c2.276,2.361,5.755,3.107,8.797,1.878c3.041-1.226,5.032-4.176,5.032-7.455V95.105c0-3.296,1.976-6.224,5.031-7.455
	c2.987-1.205,6.575-0.428,8.797,1.877l77.502,80.451C342.583,173.103,342.583,178.004,339.569,181.132z"/>
<g>
</g>
<g>
</g>
<g>
</g>
<g>
</g>
<g>
</g>
<g>
</g>
<g>
</g>
<g>
</g>
<g>
</g>
<g>
</g>
<g>
</g>
<g>
</g>
<g>
</g>
<g>
</g>
<g>
</g>
</svg>
