<svg id="Capa_1" enable-background="new 0 0 512 512" height="512" viewBox="0 0 512 512" width="512" xmlns="http://www.w3.org/2000/svg"><g><g><path d="m342.543 504.5h30.002c8.249-.001 14.998-6.751 14.998-15 0 0 0-283.998 0-312.652 0-14.327 5.563-20.136 12.499-24.348s16.501-10.021 16.501-24.348c0-19.534 0-68.645 0-75.652 0-8.25-6.75-15-15-15h-89z" fill="#ffc250"/><path d="m357.543 489.5c0 8.25-6.75 15-15 15h-277c-8.25 0-15-6.75-15-15v-437c0-8.25 6.75-15 15-15z" fill="#ffe07d"/><path d="m327.543 52.5v75.652c0 14.327 5.563 20.135 12.499 24.348s17.501 10.021 17.501 24.348v180.7l-2.943 8.577 2.943 6.423v116.952h-284.805c-3.957 0-7.195-3.238-7.195-7.195v-444.805h247c8.25 0 15 6.75 15 15z" fill="#fff0af"/><path d="m297.543 82.5s-1.569 209.142-1.569 216.149l-168.236 5c-3.957 0-7.195-3.238-7.195-7.195l5-228.954h157c8.25 0 15 6.75 15 15z" fill="#e6f7fe"/><path d="m125.543 291.454v-223.954c-8.25 0-15 6.75-15 15v216.149c0 8.25 6.75 15 15 15h155.431c8.25 0 15-6.75 15-15h-163.236c-3.957 0-7.195-3.238-7.195-7.195z" fill="#d3effd"/><path d="m160.843 268.649c-2.995 0-5.33-2.638-4.93-5.606.77-5.717 2.688-10.608 5.2-14.764-8.888 5.725-20.569 16.78-20.569 35.37h127c0-5.684-1.095-10.661-2.866-15z" fill="#ffc250"/><path d="m160.843 268.649h103.834c-7.575-18.562-27.563-25.393-27.563-25.393h-66.141s-4.405 1.509-9.86 5.023c-2.512 4.156-4.43 9.046-5.2 14.764-.4 2.968 1.935 5.606 4.93 5.606z" fill="#ffe07d"/><path d="m204.043 120.786c-27.734 0-46.427 25.63-44.124 57.476.805 11.132 2.105 29.106 2.105 29.106 1.875 25.921 16.829 46.281 42.019 46.281 30.341 0 50.142-20.361 52.018-46.281l2.107-29.106c2.305-31.846-22.196-57.476-54.125-57.476z" fill="#ffcbce"/><path d="m204.043 253.649c-30.341 0-50.145-20.36-52.019-46.281-5.73.414-10.846-5.765-11.427-13.803-.581-8.037 3.592-14.889 9.322-15.303-2.303-31.846 22.195-57.476 54.124-57.476-23.081 0-41.427 25.63-39.124 57.476.805 11.132 2.105 29.106 2.105 29.106 1.874 25.921 15.086 46.281 37.019 46.281zm54.125-75.387-2.107 29.106c5.729.415 10.846-5.765 11.428-13.802.582-8.038-3.592-14.889-9.321-15.304z" fill="#ffb3b7"/><path d="m152.576 7.5c-7.801 0-14.807 3.401-19.619 8.799-4.813-5.398-11.818-8.799-19.619-8.799-2.722 0-5.347.414-7.815 1.182-9.423 5.269-11.157 11.692-11.157 17.756 0 23.124 15.947 39.036 37.52 53.676.646.439 1.497.21 2.143 0 14.523-4.713 34.046-18.939 42.805-34.26 1.363-3.995 2.019-7.998 2.019-12.078 0-14.512-11.765-26.276-26.277-26.276z" fill="#ff9a9f"/><path d="m131.885 70.114c-21.573-14.64-31.52-26.49-31.52-43.676 0-6.064 1.638-13.133 5.156-17.756-10.696 3.327-18.461 13.304-18.461 25.095 0 18.227 12.998 34.919 44.339 56.188.939.637 2.175.637 3.114 0 24.326-16.508 37.595-30.259 42.319-44.111-10.246 9.736-28.282 19.547-42.805 24.26-.645.209-1.495.438-2.142 0z" fill="#ff8086"/><path d="m241.396 467.482c5.858 5.858 50.711-29.498 56.569-35.355l59.578-59.578v-15l-80.792 53.365c-5.857 5.857-41.213 50.71-35.355 56.568z" fill="#ffe07d"/><path d="m446.457 247.421c-5.858-5.858-15.355-5.858-21.213 0-3.019 3.019-145.474 145.473-148.492 148.492l5.293 15.293 15.921 5.921 148.492-148.492c5.857-5.859 5.857-15.356-.001-21.214z" fill="#ff9a9f"/><path d="m241.396 452.482c5.858 5.858 50.711-29.498 56.569-35.355l-21.213-21.213c-5.858 5.857-41.214 50.71-35.356 56.568z" fill="#ff8086"/></g><g><path d="m372.543 512h-307c-12.406 0-22.5-10.093-22.5-22.5v-118.988c0-4.142 3.357-7.5 7.5-7.5s7.5 3.358 7.5 7.5v118.988c0 4.136 3.364 7.5 7.5 7.5h277c4.136 0 7.5-3.364 7.5-7.5v-113.845l-46.774 46.774c-3.358 3.359-16.441 13.957-29.299 22.921-21.889 15.261-31.801 18.511-37.877 12.436-6.078-6.079-2.824-15.991 12.436-37.877 8.964-12.857 19.562-25.94 22.919-29.298s92.312-92.311 108.596-108.595v-105.168c0-18.593 8.606-26.205 16.105-30.758 7.789-4.729 12.895-8.533 12.895-17.937v-75.653c0-4.136-3.364-7.5-7.5-7.5h-44c-4.143 0-7.5-3.358-7.5-7.5s3.357-7.5 7.5-7.5h44c12.406 0 22.5 10.093 22.5 22.5v75.652c0 18.548-12.588 26.191-20.109 30.758-4.864 2.954-8.891 6.343-8.891 17.937v90.167c14.287-14.287 24.129-24.128 24.898-24.898 4.249-4.249 9.899-6.589 15.909-6.589s11.66 2.341 15.91 6.59c6.913 6.914 8.378 17.245 4.394 25.607l6.213 6.212c4.249 4.25 6.59 9.9 6.59 15.91s-2.341 11.66-6.591 15.91l-42.335 42.335c-2.929 2.929-7.678 2.928-10.606-.001s-2.929-7.678.001-10.606l42.334-42.334c1.417-1.417 2.197-3.301 2.197-5.304s-.78-3.886-2.196-5.303l-5.304-5.304-51.456 51.456c.027.262.042.528.042.798v158.007c-.001 12.407-10.095 22.5-22.501 22.5zm-8.785-15h8.785c4.136 0 7.5-3.364 7.5-7.5v-143.845l-15.039 15.039c.025.254.039.512.039.773v128.033c0 2.628-.453 5.153-1.285 7.5zm-86.664-90.137c-7.299 8.879-18.646 24.312-24.713 34.634 10.321-6.066 25.754-17.414 34.634-24.714zm10.263-10.95 10.607 10.607 143.169-143.169c.007-.007.014-.014.021-.02.004-.004.008-.009.013-.013 2.911-2.926 2.906-7.674-.014-10.594-1.416-1.417-3.3-2.197-5.303-2.197s-3.887.78-5.303 2.197c-1.771 1.771-143.19 143.189-143.19 143.189zm-236.814-47.901c-4.143 0-7.5-3.358-7.5-7.5v-288.012c0-12.407 10.094-22.5 22.5-22.5h14.229c1.883-16.854 16.218-30 33.566-30 7.086 0 13.939 2.237 19.619 6.288 5.68-4.051 12.533-6.288 19.619-6.288 17.348 0 31.683 13.146 33.566 30h126.4c12.406 0 22.5 10.093 22.5 22.5v75.652c0 8.858 5.414 12.813 13.063 17.434l.833.504c7.498 4.555 16.104 12.167 16.104 30.758v96.62c0 4.142-3.357 7.5-7.5 7.5s-7.5-3.358-7.5-7.5v-96.62c0-11.593-4.027-14.982-8.892-17.938l-.801-.485c-7.098-4.287-20.308-12.267-20.308-30.273v-75.652c0-4.136-3.364-7.5-7.5-7.5h-127.611c-4.347 16.728-18.85 32.607-46.205 51.171l.002-.001c-3.504 2.38-8.035 2.38-11.539 0-3.226-2.189-6.272-4.34-9.145-6.46v208.939c0 4.135 3.364 7.5 7.5 7.5h157c4.136 0 7.5-3.365 7.5-7.5v-216.149c0-4.136-3.364-7.5-7.5-7.5h-80.981c-4.143 0-7.5-3.358-7.5-7.5s3.357-7.5 7.5-7.5h80.981c12.406 0 22.5 10.093 22.5 22.5v216.149c0 12.407-10.094 22.5-22.5 22.5h-157c-12.406 0-22.5-10.093-22.5-22.5v-216.149c0-1.554.157-3.086.471-4.585-12.416-11.275-19.67-21.911-22.53-32.915h-15.441c-4.136 0-7.5 3.364-7.5 7.5v288.012c0 4.142-3.357 7.5-7.5 7.5zm79.778-264.266c-.007.004-.014.009-.021.014 0 0 .001 0 .002-.001.008-.005.012-.008.019-.013zm-16.983-68.746c-10.354 0-18.776 8.423-18.776 18.776 0 15.023 11.52 29.52 38.396 48.162 26.876-18.642 38.396-33.139 38.396-48.162 0-10.354-8.423-18.776-18.776-18.776-5.347 0-10.457 2.292-14.021 6.29-1.423 1.596-3.46 2.509-5.599 2.509s-4.176-.913-5.599-2.509c-3.564-3.998-8.674-6.29-14.021-6.29zm154.205 276.149h-127c-4.143 0-7.5-3.358-7.5-7.5 0-19.997 11.961-34.268 24.94-42.323-6.552-7.585-11.021-17.029-12.778-27.772-6.556-2.906-11.426-10.284-12.089-19.447-.662-9.16 3.093-17.161 9.159-20.981.229-15.169 5.832-29.321 16.077-40.333 11.702-12.58 27.929-19.507 45.69-19.507 17.763 0 33.99 6.929 45.694 19.51 10.243 11.012 15.847 25.162 16.075 40.331 6.064 3.821 9.819 11.821 9.157 20.98-.663 9.162-5.535 16.541-12.091 19.447-1.758 10.741-6.225 20.182-12.773 27.767 12.983 8.049 24.938 22.313 24.938 42.329.001 4.141-3.356 7.499-7.499 7.499zm-118.665-15h110.33c-1.473-6.362-4.888-12.024-10.207-16.896-4.002-3.667-8.24-6.096-11.05-7.474-9.464 5.995-21.047 9.369-33.908 9.369s-24.445-3.375-33.909-9.368c-2.819 1.384-7.094 3.834-11.111 7.529-5.284 4.86-8.678 10.502-10.145 16.84zm3.153-76.281c3.896 0 7.188 3.012 7.473 6.959 1.701 23.52 19.601 39.322 44.539 39.322 24.937 0 42.835-15.803 44.538-39.323.3-4.131 3.884-7.231 8.021-6.939h.016c.582 0 3.052-2.19 3.391-6.863.341-4.715-1.83-7.242-2.382-7.282-1.984-.144-3.83-1.069-5.131-2.574-1.302-1.504-1.952-3.464-1.809-5.448.947-13.091-3.29-25.417-11.933-34.708-8.835-9.497-21.162-14.727-34.712-14.727-13.549 0-25.875 5.229-34.708 14.725-8.644 9.291-12.882 21.618-11.936 34.71.299 4.131-2.808 7.723-6.939 8.021-.553.04-2.724 2.567-2.383 7.282.338 4.672 2.809 6.863 3.391 6.863h.015c.185-.011.368-.018.549-.018zm115.458-6.303h.01zm-63.446 39.493c-5.3 0-10.284-2.065-14.034-5.816-2.929-2.929-2.929-7.678.001-10.607 2.929-2.928 7.678-2.928 10.606 0 .917.917 2.134 1.422 3.427 1.422s2.51-.505 3.427-1.422c2.93-2.929 7.679-2.929 10.606 0 2.93 2.929 2.93 7.678.001 10.607-3.75 3.75-8.734 5.816-14.034 5.816zm22.079-26.383c-4.143 0-7.5-3.358-7.5-7.5v-7.264c0-4.142 3.357-7.5 7.5-7.5s7.5 3.358 7.5 7.5v7.264c0 4.142-3.357 7.5-7.5 7.5zm-44.158 0c-4.143 0-7.5-3.358-7.5-7.5v-7.264c0-4.142 3.357-7.5 7.5-7.5s7.5 3.358 7.5 7.5v7.264c0 4.142-3.358 7.5-7.5 7.5z"/></g></g></svg>