<svg id="Capa_1" enable-background="new 0 0 512.028 512.028" height="512" viewBox="0 0 512.028 512.028" width="512" xmlns="http://www.w3.org/2000/svg"><g><g><path d="m276.002 84.736c-8.503 0-15.396-6.893-15.396-15.396 0-5.676 1.681-11.229 4.858-15.934 3.378-5.002 5.259-11.097 5-17.646-.59-14.883-12.484-27.163-27.344-28.186-17.21-1.186-31.54 12.424-31.54 29.381 0 6.08 1.844 11.727 5.002 16.418 3.178 4.72 4.88 10.277 4.88 15.967 0 8.503-6.893 15.396-15.396 15.396-37.091 4.199-40.94 37.266-40.94 37.266h75.908 75.908c0-.001-3.85-33.067-40.94-37.266z" fill="#fef0ae"/></g><g><path d="m316.938 122.005h-20.971l-.256-4.899c-.181-3.467-1.506-6.832-3.956-9.292-.211-.212-.427-.416-.65-.614-4.373-3.885-10.61-5.016-16.241-5.579-3.696-.37-7.614-.172-11.262-1.102-7.455-1.9-13.535-6.837-17.014-13.673-3.952-7.764-5.137-17.549-2.609-25.84.817-2.679 2.032-5.248 3.615-7.599 3.386-4.999 5.259-11.094 4.999-17.647-.498-12.508-8.983-23.184-20.505-26.869 3.446-1.096 7.17-1.584 11.035-1.315 14.859 1.026 26.75 13.305 27.337 28.184.259 6.553-1.623 12.648-4.999 17.647-1.584 2.35-2.799 4.92-3.615 7.599-.816 2.689-1.235 5.497-1.235 8.336 0 8.505 6.892 15.396 15.397 15.396 37.085 4.193 40.93 37.267 40.93 37.267z" fill="#fee45a"/></g><g><path d="m329.99 172.714h-177.913c-9.202 0-16.662-7.46-16.662-16.662v-17.389c0-9.202 7.46-16.662 16.662-16.662h177.913c9.202 0 16.662 7.46 16.662 16.662v17.389c0 9.202-7.46 16.662-16.662 16.662z" fill="#94dfb6"/></g><g><path d="m346.655 138.666v17.388c0 9.202-7.459 16.661-16.661 16.661h-19.918c9.202 0 16.661-7.459 16.661-16.661v-17.388c0-9.202-7.459-16.661-16.661-16.661h19.918c9.202 0 16.661 7.459 16.661 16.661z" fill="#6ae0aa"/></g><g><path d="m329.909 172.711h-177.751l-16.12 23.562c-6.445 9.42-9.893 20.567-9.893 31.98v249.929c0 14.549 11.794 26.343 26.343 26.343h177.09c14.549 0 26.343-11.794 26.343-26.343v-249.929c0-11.413-3.448-22.56-9.893-31.98z" fill="#f5f8f9"/></g><g><path d="m355.923 228.255v249.926c0 14.548-11.794 26.342-26.342 26.342h-18.949c14.548 0 26.342-11.794 26.342-26.342v-249.926c0-11.415-3.445-22.556-9.891-31.983l-20.038-23.559h22.868l16.119 23.559c6.445 9.428 9.891 20.568 9.891 31.983z" fill="#e8edf2"/></g><g><g><path d="m399.518 9.796c-3.583 8.31-10.998 20.542-25.185 27.226-2.442 1.151-2.442 4.633 0 5.784 14.187 6.684 21.602 18.916 25.185 27.226 1.118 2.594 4.772 2.594 5.891 0 3.583-8.31 10.998-20.542 25.185-27.226 2.442-1.151 2.442-4.633 0-5.784-14.187-6.684-21.602-18.916-25.185-27.226-1.119-2.594-4.773-2.594-5.891 0z" fill="#fef0ae"/></g><g><path d="m430.59 42.804c-14.185 6.682-21.597 18.916-25.178 27.229-1.12 2.591-4.772 2.591-5.892 0-1.801-4.192-4.581-9.373-8.713-14.335 3.951-8.753 11.764-21.027 26.239-27.849.1-.05.2-.1.3-.18 3.561 3.561 7.933 6.852 13.244 9.353 2.45 1.15 2.45 4.631 0 5.782z" fill="#fee45a"/></g></g><g><g><path d="m76.655 72.86c-3.583 8.31-10.998 20.542-25.185 27.226-2.442 1.151-2.442 4.633 0 5.784 14.187 6.684 21.602 18.916 25.185 27.226 1.118 2.594 4.772 2.594 5.891 0 3.583-8.31 10.998-20.542 25.185-27.226 2.442-1.151 2.442-4.633 0-5.784-14.187-6.684-21.602-18.915-25.185-27.226-1.118-2.594-4.772-2.594-5.891 0z" fill="#fef0ae"/></g><g><path d="m107.727 105.868c-14.185 6.682-21.597 18.916-25.178 27.229-1.12 2.591-4.772 2.591-5.892 0-1.801-4.192-4.581-9.373-8.713-14.335 3.951-8.753 11.764-21.027 26.239-27.849.1-.05.2-.1.3-.18 3.561 3.561 7.933 6.852 13.244 9.353 2.451 1.151 2.451 4.632 0 5.782z" fill="#fee45a"/></g></g><g><g><path d="m429.481 104.924c-3.583 8.31-10.998 20.542-25.185 27.226-2.442 1.151-2.442 4.633 0 5.784 14.187 6.684 21.602 18.916 25.185 27.226 1.118 2.594 4.772 2.594 5.891 0 3.583-8.31 10.998-20.542 25.185-27.226 2.442-1.151 2.442-4.633 0-5.784-14.187-6.684-21.602-18.916-25.185-27.226-1.119-2.594-4.773-2.594-5.891 0z" fill="#fef0ae"/></g><g><path d="m460.553 137.932c-14.185 6.682-21.597 18.916-25.178 27.229-1.12 2.591-4.772 2.591-5.892 0-1.801-4.192-4.582-9.373-8.713-14.335 3.951-8.753 11.764-21.027 26.239-27.849.1-.05.2-.1.3-.18 3.561 3.561 7.933 6.852 13.244 9.353 2.451 1.15 2.451 4.631 0 5.782z" fill="#fee45a"/></g><g><path d="m341.95 177.033c7.281-4.167 12.201-12.007 12.201-20.981v-17.389c0-13.323-10.839-24.162-24.162-24.162h-7.092c-1.36-4.523-3.881-10.771-8.464-16.87-2.488-3.312-7.189-3.978-10.502-1.491-3.312 2.488-3.979 7.19-1.49 10.501 2.018 2.684 3.478 5.419 4.526 7.859h-131.87c.809-1.882 1.86-3.937 3.225-6.007 6.111-9.282 15.605-14.752 28.221-16.264 12.405-.255 22.419-10.426 22.419-22.892 0-7.202-2.13-14.171-6.158-20.154-2.436-3.619-3.724-7.848-3.724-12.23 0-6.151 2.478-11.852 6.978-16.052 4.495-4.197 10.373-6.275 16.548-5.847 10.983.757 19.929 9.981 20.364 21 .187 4.721-1.101 9.27-3.722 13.152-4.018 5.95-6.142 12.911-6.142 20.131 0 12.466 10.014 22.637 22.418 22.892.833.1 1.657.217 2.457.351 4.085.678 7.95-2.079 8.632-6.164s-2.078-7.95-6.163-8.632c-1.176-.196-2.389-.365-3.605-.503-.279-.032-.562-.047-.843-.047-4.354 0-7.896-3.542-7.896-7.896 0-4.217 1.235-8.275 3.573-11.737 4.421-6.548 6.592-14.204 6.278-22.139-.746-18.869-15.502-34.075-34.321-35.372-10.369-.714-20.247 2.783-27.815 9.847-7.462 6.966-11.741 16.813-11.741 27.017 0 7.377 2.172 14.502 6.28 20.607 2.356 3.499 3.602 7.571 3.602 11.777 0 4.354-3.542 7.896-7.896 7.896-.282 0-.563.016-.844.047-29.053 3.289-42.007 23.103-46.15 37.218h-6.994c-13.323 0-24.162 10.839-24.162 24.162v17.389c0 8.973 4.92 16.814 12.201 20.981l-10.268 15.009c-7.328 10.712-11.202 23.235-11.202 36.214v134.997c0 4.142 3.357 7.5 7.5 7.5s7.5-3.358 7.5-7.5v-134.995c0-9.944 2.968-19.538 8.583-27.745l13.885-20.297h169.839l13.887 20.297c5.614 8.207 8.582 17.801 8.582 27.745v249.929c0 10.39-8.453 18.843-18.843 18.843h-177.09c-10.39 0-18.843-8.453-18.843-18.843v-80.164c0-4.142-3.357-7.5-7.5-7.5s-7.5 3.358-7.5 7.5v80.164c0 18.661 15.182 33.843 33.843 33.843h177.09c18.661 0 33.843-15.182 33.843-33.843v-249.929c0-12.979-3.874-25.502-11.202-36.214zm-2.798-20.981c0 5.052-4.11 9.162-9.162 9.162h-.081-177.752-.081c-5.052 0-9.162-4.11-9.162-9.162v-17.389c0-5.052 4.11-9.162 9.162-9.162h177.913c5.052 0 9.162 4.11 9.162 9.162v17.389z"/><path d="m165.125 259.019h26.102c4.143 0 7.5-3.358 7.5-7.5s-3.357-7.5-7.5-7.5h-26.102c-4.143 0-7.5 3.358-7.5 7.5s3.358 7.5 7.5 7.5z"/><path d="m165.125 302.568h49.93c4.143 0 7.5-3.358 7.5-7.5s-3.357-7.5-7.5-7.5h-49.93c-4.143 0-7.5 3.358-7.5 7.5s3.358 7.5 7.5 7.5z"/><path d="m165.125 346.118h26.102c4.143 0 7.5-3.358 7.5-7.5s-3.357-7.5-7.5-7.5h-26.102c-4.143 0-7.5 3.358-7.5 7.5s3.358 7.5 7.5 7.5z"/><path d="m165.125 389.667h49.93c4.143 0 7.5-3.358 7.5-7.5s-3.357-7.5-7.5-7.5h-49.93c-4.143 0-7.5 3.358-7.5 7.5s3.358 7.5 7.5 7.5z"/><path d="m165.125 433.217h26.102c4.143 0 7.5-3.358 7.5-7.5s-3.357-7.5-7.5-7.5h-26.102c-4.143 0-7.5 3.358-7.5 7.5s3.358 7.5 7.5 7.5z"/><path d="m412.295 73.001c3.279-7.604 9.67-17.839 21.495-23.411 3.784-1.783 6.135-5.491 6.135-9.677 0-4.185-2.351-7.893-6.135-9.676-11.825-5.572-18.216-15.807-21.494-23.411-1.696-3.935-5.556-6.477-9.833-6.477s-8.137 2.542-9.833 6.477c-3.278 7.604-9.669 17.839-21.494 23.411-3.784 1.783-6.135 5.491-6.135 9.676 0 4.186 2.351 7.894 6.136 9.677 11.824 5.571 18.215 15.806 21.493 23.41 1.696 3.935 5.556 6.477 9.833 6.477s8.137-2.541 9.832-6.476zm-27.854-33.087c8.316-5.522 14.079-12.664 18.022-19.365 3.943 6.702 9.706 13.843 18.022 19.365-8.316 5.522-14.079 12.663-18.022 19.365-3.943-6.702-9.706-13.842-18.022-19.365z"/><path d="m110.927 93.302c-11.824-5.571-18.215-15.806-21.493-23.41-1.696-3.935-5.556-6.477-9.833-6.477s-8.137 2.542-9.833 6.477c-3.278 7.604-9.669 17.839-21.494 23.41-3.784 1.783-6.135 5.491-6.135 9.677 0 4.185 2.351 7.893 6.135 9.676 11.825 5.572 18.216 15.806 21.494 23.41 1.696 3.935 5.556 6.478 9.833 6.478s8.137-2.542 9.832-6.477c3.279-7.604 9.67-17.839 21.495-23.411 3.784-1.783 6.135-5.491 6.135-9.676 0-4.186-2.351-7.894-6.136-9.677zm-31.326 29.041c-3.943-6.702-9.706-13.842-18.022-19.365 8.316-5.522 14.079-12.664 18.022-19.365 3.943 6.702 9.706 13.843 18.022 19.365-8.316 5.523-14.079 12.664-18.022 19.365z"/><path d="m463.753 125.366c-11.826-5.572-18.216-15.806-21.494-23.412-1.697-3.934-5.557-6.475-9.833-6.475-4.275 0-8.135 2.542-9.832 6.475 0 0 0 .001-.001.002-3.277 7.604-9.667 17.837-21.494 23.41-3.784 1.783-6.135 5.491-6.135 9.676 0 4.186 2.351 7.894 6.135 9.677 11.828 5.573 18.217 15.807 21.495 23.412 1.697 3.934 5.557 6.475 9.832 6.475 4.276 0 8.136-2.542 9.834-6.477 3.277-7.604 9.667-17.838 21.494-23.41 3.784-1.783 6.135-5.491 6.135-9.677 0-4.185-2.351-7.893-6.136-9.676zm-31.327 29.041c-3.942-6.701-9.705-13.841-18.022-19.365 8.317-5.522 14.08-12.663 18.022-19.365 3.943 6.702 9.706 13.842 18.023 19.365-8.317 5.523-14.08 12.664-18.023 19.365z"/></g></g></g></svg>