<svg id="Capa_1" enable-background="new 0 0 508.711 508.711" height="512" viewBox="0 0 508.711 508.711" width="512" xmlns="http://www.w3.org/2000/svg"><g><g><ellipse cx="438.542" cy="275.543" fill="#ffcdbe" rx="60.648" ry="76.079"/></g><g><path d="m438.542 199.464c-5.178 0-10.202.818-15 2.35 26.24 8.375 45.648 38.207 45.648 73.729s-19.409 65.354-45.648 73.729c4.798 1.531 9.822 2.35 15 2.35 33.495 0 60.648-34.062 60.648-76.079.001-42.017-27.152-76.079-60.648-76.079z" fill="#ebae9d"/></g><g><path d="m286.171 468.794-20.679-91.496c-1.832-8.104-1.807-16.518.073-24.611l6.982-30.068c4.02-17.312-2.424-35.378-16.493-46.237-3.191-2.463-5.492-5.898-6.557-9.786l-.549-2.005h-43.84-43.84l-.549 2.005c-1.064 3.888-3.366 7.323-6.557 9.786-14.069 10.859-20.513 28.926-16.493 46.237l6.982 30.068c1.88 8.093 1.904 16.507.073 24.611l-20.679 91.496c-1.908 8.44.416 17.28 6.227 23.692 5.035 5.556 12.184 8.725 19.682 8.725h55.154 55.154c7.498 0 14.647-3.169 19.682-8.725 5.811-6.412 8.134-15.252 6.227-23.692z" fill="#ddebfd"/></g><g><path d="m286.171 468.794-20.679-91.496c-1.832-8.104-1.807-16.518.073-24.611l6.982-30.068c4.02-17.312-2.424-35.378-16.493-46.237-3.191-2.463-5.492-5.898-6.557-9.786l-.549-2.005h-30l.549 2.005c1.064 3.888 3.366 7.323 6.557 9.786 14.069 10.859 20.513 28.926 16.493 46.237l-6.982 30.068c-1.879 8.093-1.904 16.507-.073 24.611l20.679 91.496c1.908 8.44-.416 17.281-6.227 23.692-5.035 5.556-12.184 8.725-19.682 8.725h30c7.498 0 14.647-3.169 19.682-8.725 5.811-6.412 8.134-15.252 6.227-23.692z" fill="#bed9fd"/></g><g><path d="m237.766 216.763c-.725-7.519-7.042-13.257-14.596-13.257h-18.062-18.062c-7.553 0-13.871 5.738-14.596 13.257-.406 4.21-2.61 8.04-6.046 10.506l-10.403 7.466c-2.856 2.05-4.55 5.35-4.55 8.866v10.076c0 6.027 4.886 10.913 10.913 10.913h42.745 42.745c6.027 0 10.913-4.886 10.913-10.913v-10.076c0-3.516-1.694-6.816-4.55-8.866l-10.403-7.466c-3.438-2.466-5.642-6.296-6.048-10.506z" fill="#736e6e"/></g><g><path d="m143.887 79.982c-.068-.084-.135-.169-.203-.253-17.511-21.887-32.119-45.982-49.75-67.772-1.397-1.726-2.915-3.512-5.005-4.264-14.695-5.29-50.358 102.249-54.567 115.898-13.158 42.671-21.531 86.823-24.79 131.361-.186 2.541-.062 5.655 2.178 6.871 1.403.762 3.123.438 4.678.072 27.608-6.492 53.088-19.712 79.603-29.779 26.515-10.066 55.575-17.037 83.137-10.351 11.758 2.852 23.045 8.147 35.128 8.79 20.071 1.067 40.037-12.494 46.444-31.545 6.406-19.051-1.309-41.921-17.947-53.198-10.266-6.958-22.791-9.505-34.354-13.988-26.035-10.097-47.081-30.054-64.552-51.842z" fill="#ebe1dc"/></g><g><path d="m242.791 145.811c-10.266-6.958-22.791-9.505-34.354-13.988-26.033-10.095-47.079-30.052-64.55-51.84-.068-.084-.135-.169-.203-.253-17.511-21.887-32.119-45.982-49.75-67.772-1.397-1.726-2.915-3.512-5.005-4.264-4.852-1.746-11.99 8.811-19.527 24.223 15.264 19.885 28.614 41.231 44.281 60.814.067.084.135.169.203.253 17.471 21.788 38.518 41.745 64.55 51.84 11.563 4.484 24.088 7.03 34.354 13.988 16.638 11.277 24.353 34.147 17.947 53.198-2.388 7.103-6.663 13.44-12.124 18.543 18.55-.917 36.178-13.861 42.124-31.543 6.407-19.052-1.308-41.923-17.946-53.199z" fill="#dcd2cd"/></g><g><path d="m506.69 275.543c0-42.976-26.588-78.467-60.648-83.062v-11.786c0-4.142-3.357-7.5-7.5-7.5s-7.5 3.358-7.5 7.5v11.786c-34.06 4.596-60.648 40.086-60.648 83.062 0 44.437 28.427 80.873 64.148 83.423v20.82c0 24.573-19.992 44.565-44.566 44.565-24.573 0-44.565-19.992-44.565-44.565v-257.764c0-32.844-26.721-59.566-59.566-59.566s-59.565 26.721-59.565 59.566v7.993c-1.595-.542-3.188-1.065-4.771-1.585-3.612-1.187-7.024-2.307-10.358-3.6-21.179-8.212-41.266-24.417-61.406-49.533l-.203-.253c-8.425-10.531-16.366-21.866-24.045-32.828-8.146-11.629-16.57-23.654-25.731-34.977-1.545-1.909-4.131-5.104-8.295-6.603-1.985-.715-5.138-1.186-8.875.624-10.027 4.855-20.236 26.652-28.9 47.333-9.975 23.81-19.157 50.555-22.642 60.948-1.317 3.927.799 8.178 4.727 9.495 3.927 1.316 8.179-.8 9.495-4.727 20.823-62.112 35.936-91.534 42.315-98.259.209.249.392.475.512.624 8.835 10.918 17.107 22.727 25.107 34.147 7.814 11.154 15.894 22.689 24.618 33.593l.208.26c21.841 27.238 43.983 44.948 67.691 54.141 3.701 1.435 7.462 2.671 11.1 3.866 7.962 2.616 15.483 5.086 21.757 9.338 13.948 9.454 20.417 28.628 15.047 44.599-5.371 15.972-22.106 27.338-38.938 26.446-6.942-.369-13.852-2.572-21.167-4.904-4.064-1.296-8.267-2.636-12.59-3.684-24.799-6.015-52.624-2.638-87.567 10.628-8.618 3.272-17.205 6.904-25.508 10.417-16.43 6.95-33.395 14.126-50.696 18.476 2.852-37.63 9.446-75.277 19.602-111.924 1.106-3.992-1.233-8.125-5.225-9.231-3.986-1.106-8.125 1.232-9.23 5.225-10.556 38.083-17.358 77.225-20.22 116.336-.623 8.513 2.962 12.317 6.078 14.009 1.935 1.051 3.905 1.368 5.627 1.368 1.855 0 3.422-.369 4.347-.586 19.39-4.559 37.777-12.337 55.559-19.86 8.177-3.459 16.632-7.035 24.988-10.208 21.307-8.089 39.507-12.187 55.714-12.479l-2.778 1.993c-4.808 3.45-7.678 9.042-7.678 14.96v10.076c0 6.094 2.988 11.489 7.563 14.843-.562.716-1.21 1.366-1.933 1.924-16.344 12.615-23.886 33.76-19.216 53.871l6.982 30.068c1.614 6.949 1.635 14.301.063 21.261l-20.679 91.497c-2.443 10.811.542 22.169 7.985 30.382 6.444 7.111 15.643 11.189 25.239 11.189h110.309c9.596 0 18.795-4.078 25.239-11.189 7.442-8.213 10.428-19.571 7.984-30.382l-1.301-5.756c-.912-4.04-4.923-6.576-8.969-5.662-4.04.913-6.575 4.928-5.662 8.968l1.301 5.756c1.367 6.051-.304 12.407-4.469 17.003-3.606 3.979-8.754 6.262-14.124 6.262h-110.307c-5.37 0-10.519-2.282-14.124-6.262-4.165-4.596-5.836-10.952-4.469-17.003l20.679-91.496c2.069-9.153 2.04-18.822-.082-27.961l-6.982-30.068c-3.347-14.411 2.058-29.563 13.771-38.604 3.464-2.674 6.199-6.229 7.948-10.228h76.828c1.749 3.999 4.484 7.553 7.949 10.228 11.711 9.04 17.116 24.193 13.771 38.603l-6.982 30.068c-2.122 9.138-2.151 18.807-.083 27.961l13.219 58.487c.787 3.484 3.881 5.848 7.309 5.848.547 0 1.104-.061 1.66-.186 4.04-.913 6.575-4.928 5.662-8.969l-13.219-58.487c-1.572-6.961-1.551-14.313.064-21.262l6.982-30.069c4.669-20.11-2.873-41.256-19.216-53.87-.723-.559-1.371-1.208-1.933-1.925 4.574-3.353 7.562-8.749 7.562-14.843v-10.076c0-5.917-2.87-11.51-7.677-14.959l-6.211-4.457c7.004-6.128 12.496-13.945 15.469-22.786 7.442-22.13-1.521-48.697-20.848-61.796-1.864-1.263-3.777-2.386-5.721-3.408v-14.172c0-24.574 19.992-44.566 44.565-44.566s44.566 19.992 44.566 44.566v257.764c0 32.844 26.721 59.565 59.565 59.565s59.566-26.721 59.566-59.565v-21.768c32.363-6.467 57.148-40.979 57.148-82.472zm-256.847-34.714c.891.639 1.422 1.675 1.422 2.773v10.076c0 1.882-1.531 3.413-3.413 3.413h-85.49c-1.882 0-3.413-1.531-3.413-3.413v-10.076c0-1.097.532-2.133 1.423-2.773l10.404-7.466c1.848-1.326 3.444-2.909 4.79-4.706.61.133 1.227.249 1.832.396 3.808.924 7.578 2.126 11.57 3.398 7.896 2.518 16.061 5.121 24.927 5.592 9.076.482 18.13-1.621 26.249-5.664l-.706.983zm198.641-16.811c4.339 13.655 6.728 31.954 6.728 51.525s-2.389 37.87-6.728 51.525c-4.453 14.019-9.045 17.054-9.942 17.054s-5.488-3.035-9.941-17.054c-4.339-13.655-6.728-31.954-6.728-51.525s2.389-37.87 6.728-51.525c4.453-14.019 9.044-17.054 9.941-17.054s5.489 3.035 9.942 17.054zm-63.091 51.525c0-27.699 12.8-51.598 31.162-62.411-6.569 16.322-9.683 39.848-9.683 62.411s3.114 46.089 9.683 62.411c-18.361-10.813-31.162-34.712-31.162-62.411zm75.136 62.411c6.569-16.322 9.683-39.848 9.683-62.41 0-22.563-3.114-46.089-9.683-62.411 18.362 10.814 31.161 34.712 31.161 62.411 0 27.698-12.799 51.596-31.161 62.41z"/><path d="m214.591 323.856h-23.842c-4.142 0-7.5 3.358-7.5 7.5s3.358 7.5 7.5 7.5h23.842c4.142 0 7.5-3.358 7.5-7.5s-3.358-7.5-7.5-7.5z"/><path d="m214.591 359.312h-23.842c-4.142 0-7.5 3.358-7.5 7.5s3.358 7.5 7.5 7.5h23.842c4.142 0 7.5-3.358 7.5-7.5s-3.358-7.5-7.5-7.5z"/><path d="m214.591 394.769h-23.842c-4.142 0-7.5 3.358-7.5 7.5s3.358 7.5 7.5 7.5h23.842c4.142 0 7.5-3.358 7.5-7.5s-3.358-7.5-7.5-7.5z"/><path d="m214.591 430.226h-23.842c-4.142 0-7.5 3.358-7.5 7.5s3.358 7.5 7.5 7.5h23.842c4.142 0 7.5-3.358 7.5-7.5s-3.358-7.5-7.5-7.5z"/></g></g></svg>