<svg height="512pt" viewBox="-69 0 512 512.00022" width="512pt" xmlns="http://www.w3.org/2000/svg"><path d="m68.273438 93.449219-3.546876 248.765625 237.390626 3.382812 3.546874-248.765625c.730469-51.273437-42.726562-92.101562-93.851562-88.175781l-16.644531 1.277344c-4.652344.359375-9.328125.289062-13.96875-.199219l-16.601563-1.75c-50.992187-5.382813-95.59375 34.191406-96.324218 85.464844zm0 0" fill="#fdbd37"/><path d="m211.8125 8.65625-16.644531 1.277344c-3.050781.234375-6.105469.265625-9.160157.136718 40.105469 7.992188 70.679688 43.6875 70.066407 86.761719l-3.535157 248.058594 49.582032.707031 3.542968-248.765625c.730469-51.273437-42.726562-92.101562-93.851562-88.175781zm0 0" fill="#fa9a39"/><path d="m329.507812 323.671875c-27.71875-14.070313-56.976562-23.855469-86.835937-29.359375-11.558594-2.128906-19.933594-12.230469-19.933594-23.984375v-46.632813h-76.21875v46.632813c0 11.753906-8.375 21.855469-19.933593 23.984375-29.859376 5.503906-59.117188 15.289062-86.835938 29.359375-19.785156 10.042969-32.253906 30.351563-32.253906 52.542969l5.710937 121.453125c.179688 3.828125 3.335938 6.835937 7.167969 6.835937h339.894531c4.097657 0 7.363281-3.421875 7.167969-7.511718l-5.675781-120.777344c0-22.1875-12.46875-42.5-32.253907-52.542969zm0 0" fill="#fed6a6"/><path d="m39.753906 323.671875c-19.789062 10.042969-32.257812 30.351563-32.257812 52.542969l5.710937 121.453125c.179688 3.828125 3.335938 6.835937 7.167969 6.835937h194.183594l-87.972656-210.191406c-29.859376 5.503906-59.113282 15.289062-86.832032 29.359375zm0 0" fill="#ff94a6"/><path d="m309.617188 390.527344c-7.140626-48.164063-50.835938-78.964844-69.847657-96.957032-10.027343-3.160156-17.03125-12.5-17.03125-23.242187v-9.851563c-14.355469 7.207032-28.609375 10.722657-38.28125 10.792969-3.089843-.113281-6.636719-.589843-10.496093-1.433593v34.417968c0 11.753906 8.375 21.855469 19.933593 23.988282 29.859375 5.503906 59.117188 15.285156 86.835938 29.355468 13.726562 6.96875 23.925781 18.882813 28.886719 32.929688zm0 0" fill="#efc79c"/><path d="m339.832031 330.351562c-4.753906-3.835937-10.070312-6.613281-15.539062-9.265624-26.164063-12.691407-53.628907-21.613282-81.621094-26.769532-.644531-.121094-1.273437-.273437-1.894531-.4375-.167969-.046875-.332032-.09375-.496094-.140625-.148438-.042969-.296875-.082031-.445312-.125 19.097656 18.234375 64.078124 49.40625 70.136718 99.332031 4.125 33.980469-87.375 71.757813-114.808594 111.5625h165.105469c4.097657 0 7.363281-3.421874 7.167969-7.511718l-5.675781-120.777344c0-18.03125-8.230469-34.820312-21.929688-45.867188zm0 0" fill="#ff94a6"/><path d="m296.574219 353.554688c-22.332031-16.152344-94.273438 4.597656-100.90625 46.417968-102.078125 1.1875-134.441407 104.535156-134.441407 104.535156h137.078126s47.816406-5.917968 73.53125-54.929687c13.527343-2.472656 26.40625-10.605469 35.074218-22.589844 8.996094-12.441406 11.425782-27.636719 7.953125-41.445312-2.761719-10.976563-8.394531-24.835938-18.289062-31.988281zm0 0" fill="#a393e5"/><path d="m104.625 436.933594c-28.632812 27.214844-40.976562 60.496094-43.070312 66.585937-.011719.035157-.019532.0625-.03125.09375-.054688.160157-.101563.300781-.140626.417969-.011718.027344-.019531.0625-.027343.085938-.035157.101562-.0625.183593-.082031.246093-.003907.015625-.011719.039063-.019532.054688-.015625.046875-.027344.089843-.027344.089843h137.078126s47.816406-5.917968 73.53125-54.929687c13.527343-2.472656 26.40625-10.605469 35.074218-22.589844-91.835937 30.867188-173.761718 16.675781-202.285156 9.945313zm0 0" fill="#8a84c1"/><path d="m195.667969 399.972656c81.699219 10.5 100.90625-46.417968 100.90625-46.417968-22.332031-16.148438-94.273438 4.597656-100.90625 46.417968zm0 0" fill="#ffe3c2"/><path d="m103.070312 117.539062-13.855468-.199218c-11.757813-.167969-21.414063 9.230468-21.582032 20.988281l-.144531 10.070313c-.167969 11.753906 9.21875 21.425781 20.976563 21.59375l13.855468.195312zm0 0" fill="#fed6a6"/><path d="m270.195312 119.921875 13.855469.195313c11.753907.167968 21.140625 9.835937 20.972657 21.59375l-.144532 10.070312c-.167968 11.753906-9.820312 21.152344-21.578125 20.984375l-13.855469-.195313zm0 0" fill="#fed6a6"/><path d="m183.734375 69.039062c-31.355469 28.25-69.300781 35.414063-82.191406 37.09375-2.605469.339844-4.558594 2.546876-4.585938 5.175782l-.734375 70.597656c-.847656 59.492188 61.207032 88.398438 88.234375 89.363281 27.046875-.195312 89.898438-27.316406 90.746094-86.8125l1.277344-70.589843c.046875-2.628907-1.839844-4.890626-4.4375-5.304688-12.835938-2.046875-50.558594-10.289062-81.097657-39.421875-2.011718-1.917969-5.144531-1.960937-7.210937-.101563zm0 0" fill="#ffe3c2"/><path d="m272.042969 108.5625c-8.199219-1.304688-26.550781-5.152344-46.695313-15.34375l-1.125 91.238281c-.628906 44.082031-35.292968 70.386719-64.210937 81.136719 9.277343 3.558594 17.890625 5.441406 24.445312 5.675781 27.046875-.195312 89.898438-27.316406 90.746094-86.8125l1.277344-70.589843c.046875-2.628907-1.839844-4.890626-4.4375-5.304688zm0 0" fill="#f7d6b5"/><g fill="#efc79c"><path d="m351.128906 342.460938c.507813.730468 1 1.472656 1.476563 2.222656-.476563-.75-.96875-1.492188-1.476563-2.222656zm0 0"/><path d="m349.222656 339.890625c.585938.75 1.160156 1.511719 1.710938 2.289063-.550782-.777344-1.125-1.539063-1.710938-2.289063zm0 0"/><path d="m352.878906 345.117188c.5.800781.976563 1.613281 1.433594 2.4375-.457031-.824219-.933594-1.636719-1.433594-2.4375zm0 0"/><path d="m347 337.210938c.632812.714843 1.242188 1.449218 1.839844 2.191406-.597656-.742188-1.207032-1.476563-1.839844-2.191406zm0 0"/><path d="m339.832031 330.351562c.765625.617188 1.507813 1.257813 2.238281 1.910157-.730468-.652344-1.472656-1.292969-2.238281-1.910157zm0 0"/><path d="m344.9375 335c.625.640625 1.238281 1.289062 1.832031 1.957031-.59375-.667969-1.207031-1.316406-1.832031-1.957031zm0 0"/><path d="m354.597656 348.074219c.464844.851562.914063 1.710937 1.335938 2.589843-.421875-.878906-.875-1.738281-1.335938-2.589843zm0 0"/><path d="m344.578125 334.628906c-.667969-.671875-1.355469-1.324218-2.058594-1.964844.703125.636719 1.390625 1.292969 2.058594 1.964844zm0 0"/><path d="m355.933594 350.667969c.421875.875.8125 1.761719 1.191406 2.660156-.378906-.898437-.769531-1.785156-1.191406-2.660156zm0 0"/><path d="m361.394531 369.703125c.109375.957031.1875 1.921875.246094 2.890625-.058594-.96875-.136719-1.933594-.246094-2.890625zm0 0"/><path d="m339.832031 330.351562c-3.164062-2.550781-6.617187-4.796874-10.324219-6.679687-.6875-.347656-1.375-.679687-2.0625-1.023437 4.351563 2.207031 8.550782 4.609374 12.386719 7.703124zm0 0"/><path d="m361.761719 376.214844c0-1.007813-.035157-2.011719-.085938-3.011719.050781 1 .085938 2.003906.085938 3.011719zm0 0"/><path d="m365.082031 446.890625-3.320312-70.675781zm0 0"/><path d="m360.949219 366.488281c.148437.890625.273437 1.792969.382812 2.695313-.109375-.902344-.234375-1.804688-.382812-2.695313zm0 0"/><path d="m357.355469 353.878906c.359375.875.699219 1.757813 1.015625 2.648438-.316406-.890625-.65625-1.773438-1.015625-2.648438zm0 0"/><path d="m360.320312 363.304688c.214844.941406.40625 1.886718.570313 2.839843-.164063-.953125-.355469-1.902343-.570313-2.839843zm0 0"/><path d="m358.535156 357.011719c.292969.847656.566406 1.699219.820313 2.5625-.253907-.863281-.527344-1.714844-.820313-2.5625zm0 0"/><path d="m359.457031 359.90625c.265625.921875.503907 1.851562.726563 2.789062-.222656-.9375-.460938-1.867187-.726563-2.789062zm0 0"/><path d="m311.097656 395.378906c-.027344-.109375-.058594-.214844-.085937-.320312.027343.105468.058593.210937.085937.320312zm0 0"/><path d="m364.585938 503.054688c-.269532.203124-.550782.394531-.847657.558593.296875-.164062.578125-.355469.847657-.558593zm0 0"/><path d="m367.199219 499.203125c.085937-.308594.140625-.632813.179687-.957031-.039062.324218-.09375.648437-.179687.957031zm0 0"/><path d="m367.410156 498c.027344-.332031.046875-.664062.027344-1.007812.019531.34375 0 .675781-.027344 1.007812zm0 0"/><path d="m363.628906 503.664062c-.28125.152344-.574218.28125-.875.390626.300782-.109376.59375-.238282.875-.390626zm0 0"/><path d="m366.269531 501.261719c.183594-.28125.34375-.574219.488281-.875-.140624.300781-.304687.597656-.488281.875zm0 0"/><path d="m365.578125 502.148438c.210937-.230469.40625-.480469.585937-.738282-.179687.257813-.375.507813-.585937.738282zm0 0"/><path d="m366.84375 500.191406c.140625-.320312.261719-.644531.355469-.984375-.089844.339844-.214844.667969-.355469.984375zm0 0"/><path d="m364.753906 502.921875c.265625-.210937.515625-.4375.746094-.679687-.230469.242187-.480469.46875-.746094.679687zm0 0"/><path d="m311.648438 397.671875c-.003907-.007813-.003907-.011719-.007813-.023437.003906.011718.003906.015624.007813.023437zm0 0"/><path d="m312.789062 405.433594c-.019531-.25-.042968-.5-.066406-.75.023438.25.046875.5.066406.75zm0 0"/><path d="m312.542969 402.996094c-.027344-.210938-.050781-.417969-.078125-.628906.027344.210937.050781.417968.078125.628906zm0 0"/><path d="m312.933594 407.800781c-.007813-.234375-.023438-.46875-.035156-.703125.011718.234375.027343.46875.035156.703125zm0 0"/><path d="m312.132812 400.175781c-.003906-.023437-.007812-.050781-.011718-.074219.003906.023438.007812.050782.011718.074219zm0 0"/><path d="m310.347656 392.742188c.03125.101562.0625.199218.09375.300781-.03125-.101563-.0625-.199219-.09375-.300781zm0 0"/><path d="m360.269531 504.507812c.375 0 .738281-.039062 1.097657-.09375-.359376.054688-.722657.09375-1.097657.09375zm0 0"/><path d="m361.582031 504.378906c.339844-.0625.675781-.148437 1-.257812-.324219.109375-.660156.195312-1 .257812zm0 0"/></g><path d="m275.117188 446.890625h-34.515626c-31.863281 0-57.699218 25.777344-57.8125 57.613281h92.328126zm0 0" fill="#fed6a6"/><path d="m365.082031 446.890625-3.320312-70.675781c0-18.027344-8.230469-34.816406-21.929688-45.867188-4.753906-3.835937-10.070312-6.613281-15.539062-9.265625-26.164063-12.6875-53.628907-21.609375-81.621094-26.769531-.644531-.117188-1.273437-.269531-1.894531-.4375-.167969-.042969-.332032-.089844-.496094-.136719-.148438-.042969-.296875-.082031-.445312-.125 13.382812 12.777344 39.453124 31.921875 55.949218 59.410157.265625.175781.535156.347656.789063.53125 9.890625 7.152343 15.527343 21.007812 18.289062 31.988281 2.433594 9.675781 1.949219 20.027343-1.644531 29.640625l.855469 18.171875c.347656 7.371093-5.535157 13.535156-12.917969 13.535156h-26.042969v57.613281h85.15625c3.328125 0 6.105469-2.257812 6.929688-5.300781.1875-.703125.273437-1.445313.238281-2.210937zm0 0" fill="#f4849c"/><path d="m185.429688 190.242188 6.5625.632812c.246093.023438.488281.035156.730468.035156 3.816406 0 7.082032-2.902344 7.457032-6.78125.394531-4.125-2.625-7.789062-6.746094-8.183594l-2.234375-.214843 1.503906-15.589844c.394531-4.121094-2.625-7.785156-6.75-8.183594-4.121094-.390625-7.785156 2.625-8.183594 6.746094l-1.917969 19.917969c-.5625 5.847656 3.734376 11.058594 9.578126 11.621094zm0 0"/><path d="m185.722656 233.882812c15.042969 0 28.710938-6.671874 35.792969-17.515624 2.261719-3.46875 1.285156-8.117188-2.183594-10.382813s-8.117187-1.289063-10.378906 2.179687c-4.34375 6.652344-13.660156 10.832032-23.746094 10.710938-10.082031-.140625-19.277343-4.609375-23.429687-11.382812-2.164063-3.527344-6.78125-4.636719-10.3125-2.472657-3.53125 2.164063-4.640625 6.78125-2.476563 10.3125 6.878907 11.21875 20.675781 18.324219 36.003907 18.542969.246093.003906.488281.007812.730468.007812zm0 0"/><path d="m231.710938 170.914062h.105468c4.09375 0 7.441406-3.289062 7.496094-7.394531l.113281-7.90625c.058594-4.140625-3.25-7.546875-7.394531-7.605469-4.105469-.0625-7.546875 3.253907-7.601562 7.394532l-.113282 7.90625c-.058594 4.140625 3.25 7.546875 7.394532 7.605468zm0 0"/><path d="m149.523438 165.90625c4.089843 0 7.4375-3.285156 7.496093-7.394531l.117188-8.1875c.058593-4.140625-3.25-7.546875-7.394531-7.605469-.035157 0-.070313 0-.105469 0-4.09375 0-7.441407 3.289062-7.5 7.394531l-.117188 8.1875c-.058593 4.140625 3.25 7.546875 7.394531 7.605469zm0 0"/><path d="m374.929688 496.632812-5.667969-120.605468c-.066407-25.078125-13.988281-47.691406-36.359375-59.050782-28.046875-14.238281-57.945313-24.347656-88.867188-30.046874-7.992187-1.472657-13.796875-8.457032-13.796875-16.609376v-5.3125c4.695313-2.578124 9.367188-5.535156 13.886719-8.890624 17.316406-12.84375 38.066406-35.6875 38.578125-71.527344l.078125-4.335938s7.164062.175782 14.242188-3.316406l-1.421876 99.773438c-.0625 4.140624 3.25 7.546874 7.390626 7.601562.035156.003906.074218.003906.109374.003906 4.089844 0 7.4375-3.289062 7.496094-7.394531l2.566406-179.992187c.378907-26.539063-10.5-52.183594-29.847656-70.359376-19.339844-18.171874-45.613281-27.425781-72.078125-25.398437-7.738281.59375-15.472656 1.480469-23.246093 1.410156-7.578126-.070312-15.085938-1.269531-22.605469-2.0625-26.394531-2.78125-52.921875 5.71875-72.773438 23.335938-19.855469 17.613281-31.460937 42.9375-31.835937 69.480469l-2.613282 183.386718c-.058593 4.144532 3.25 7.546875 7.390626 7.605469.035156.003906.074218.003906.109374.003906 4.09375 0 7.4375-3.289062 7.496094-7.394531l1.472656-103.148438c4.140626 2.34375 9.246094 4.082032 14.136719 4.160157l-.042969 3.847656c-.511718 35.871094 19.582032 59.292969 36.523438 72.628906 4.472656 3.515625 9.105469 6.636719 13.773438 9.363281v6.535157c0 8.148437-5.800782 15.136719-13.792969 16.609375-30.925781 5.699218-60.824219 15.808594-88.871094 30.046875-22.425781 11.382812-36.359375 34.078125-36.359375 59.230469 0 .117187.00390625.234374.0078125.355468l5.7109375 121.449219c.367188 7.839844 6.808594 13.984375 14.660156 13.984375h339.894532c8.246093 0 15.046874-7.125 14.65625-15.367188zm-77.402344-355.039062-.144532 10.074219c-.109374 7.539062-5.96875 13.59375-14.328124 13.59375-.066407 0 0-.003907 0-.003907s.679687-37.648437.679687-37.644531c7.605469-.003906 13.894531 6.367188 13.792969 13.980469zm-208.601563 20.890625c-4.789062 0-13.9375-6.496094-13.9375-13.988281 0 0 .144531-10.0625.144531-10.066406.105469-7.503907 6.753907-13.71875 14.1875-13.59375-.003906 0-.394531 37.652343-.394531 37.648437zm.625-52.644531-.230469-.003906c-4.886718-.078126-9.613281 1.070312-13.828124 3.300781l.28125-19.589844c.316406-22.332031 10.082031-43.644531 26.792968-58.472656 16.707032-14.824219 39.027344-21.984375 61.246094-19.636719 8.789062.925781 17.597656 1.863281 26.445312 1.96875 7.40625.085938 14.753907-.714844 22.128907-1.28125 22.261719-1.710938 44.382812 6.082031 60.664062 21.378906 16.277344 15.292969 25.433594 36.878906 25.113281 59.210938l-.277343 19.613281c-4.0625-2.300781-8.742188-3.644531-13.730469-3.714844l-.226562-.003906c-.527344-5.734375-4.917969-10.535156-10.703126-11.460937-10.664062-1.699219-47.734374-9.421876-77.101562-37.4375-4.816406-4.597657-12.464844-4.703126-17.410156-.25-30.160156 27.171874-67.433594 33.832031-78.140625 35.230468-5.808594.753906-10.332031 5.433594-11.023438 11.148438zm44.972657 132.796875c-14.285157-11.242188-31.226563-30.886719-30.800782-60.65625l.714844-68.679688c16.007812-2.320312 51.960938-10.351562 82.804688-37.351562 30.054687 27.867187 65.765624 36.917969 81.703124 39.695312l-1.238281 68.703125c-.425781 29.738282-17.917969 48.894532-32.519531 59.722656-17.996094 13.347657-38.808594 19.550782-50.621094 19.691407-11.808594-.476563-32.433594-7.269531-50.042968-21.125zm19.484374 28.625c11.445313 4.773437 22.199219 7.210937 30.183594 7.496093.089844.003907.179688.003907.269532.003907h.050781c8.078125-.058594 19.046875-2.234375 30.769531-6.78125.660156 12.769531 8.863281 23.785156 20.585938 28.191406 2.820312 2.632813 31.3125 27.601563 41.941406 40.503906-13.582032-.621093-29.839844 2.578125-45.257813 9.417969-22.390625 9.9375-37.675781 25.210938-42.886719 42.554688-4.480468.226562-8.902343.648437-13.257812 1.265624l-39.824219-95.148437c10.207031-5.179687 17.078125-15.628906 17.425781-27.503906zm132.625 85.8125c-2.636718 4.695312-7.296874 11.511719-14.765624 17.933593-16.539063 14.230469-38.890626 20.40625-66.53125 18.398438 0 0-.015626.019531-.046876.054688 4.929688-11.71875 16.664063-22.253907 33.347657-29.65625 10.125-4.492188 21.246093-7.355469 31.320312-8.0625 6.464844-.453126 12.246094.027343 16.675781 1.332031zm-265.945312 139.925781-5.6875-120.960938c.0625-19.402343 10.835938-36.898437 28.148438-45.6875 24.964843-12.671874 51.472656-21.917968 78.875-27.519531l39.363281 94.046875c-29.816407 7.601563-56.050781 24.90625-77.070313 51.105469-16.070312 20.027344-24.828125 39.835937-28.367187 49.015625zm246.929688 0h-76.738282c3.726563-24.089844 24.636719-42.613281 49.726563-42.613281h27.011719zm-27.015626-57.613281c-33.359374 0-61.027343 25.230469-64.859374 57.613281h-103.554688c4.152344-9.554688 11.894531-24.847656 24.144531-40.019531 26.050781-32.253907 59.328125-48.910157 98.917969-49.507813 6.960938.871094 13.492188 1.269532 19.617188 1.269532 33.125 0 54.296874-11.621094 66.785156-22.363282 6.773437-5.824218 12.074218-12.632812 17.007812-20.015625 7.117188 11.027344 11.765625 24.84375 9.65625 38.035157-2.5 15.667968-14.066406 28.898437-28.511718 34.988281zm42.015626 57.613281v-42.613281h18.542968c11.261719 0 20.933594-10.1875 20.40625-21.390625l-.78125-16.691406c3.605469-10.519532 4.078125-21.753907 1.351563-32.597657-2.378907-9.457031-8.230469-26.613281-20.773438-35.949219-10.027343-16.246093-23.09375-29.578124-34.832031-40.335937 20.566406 5.582031 40.523438 13.257813 59.582031 22.933594 17.363281 8.8125 28.148438 26.382812 28.148438 45.855469 0 .117187.003906.234374.007812.351562l5.660157 120.4375zm0 0"/></svg>