<?xml version="1.0" encoding="iso-8859-1"?>
<!-- Generator: Adobe Illustrator 19.0.0, SVG Export Plug-In . SVG Version: 6.00 Build 0)  -->
<svg version="1.1" id="Capa_1" xmlns="http://www.w3.org/2000/svg" xmlns:xlink="http://www.w3.org/1999/xlink" x="0px" y="0px"
	 viewBox="0 0 512 512" style="enable-background:new 0 0 512 512;" xml:space="preserve">
<circle style="fill:#FFF0CF;" cx="256.003" cy="255.983" r="248.513"/>
<circle style="fill:#FFFFFF;" cx="256.003" cy="255.983" r="224.461"/>
<path style="fill:#E3AA75;" d="M308.833,276.106c-124.273,45.906-113.015,77.667-113.015,77.667c-0.785-2.541-1.862-5.02-3.197-7.4
	c-5.407-9.62-15.202-16.118-25.586-17.817c-5.212-0.884-10.673-0.607-15.802,0.846c-2.575,0.709-5.019,1.749-7.315,2.99
	c-1.118,0.643-2.216,1.327-3.282,2.043l-15.567,12.444c-3.189-5.155-6.433-10.289-10.008-15.289
	c-2.656-3.698-7.233-5.847-12.055-5.166c-6.914,0.977-11.728,7.374-10.752,14.289c1.057,7.478,5.851,29.264,6.693,32.878
	l0.165,0.675l0.837,2.077c0.63,1.408,1.409,2.802,2.311,4.103c1.791,2.631,4.116,4.932,6.746,6.745
	c5.253,3.647,11.847,5.378,18.461,4.593c3.301-0.376,6.551-1.433,9.468-2.95l14.944-7.888l14.251,44.943
	c6.148,19.389,26.319,30.7,46.023,25.654c46.058-11.792,127.155-52.694,182.142-186.421c1.826-4.44,4.743-8.342,8.218-11.656
	L308.833,276.106z"/>
<g>
	<circle style="fill:#F5B97D;" cx="336.167" cy="183.84" r="96.195"/>
	<path style="fill:#F5B97D;" d="M252.211,300.365c-63.759,32.456-56.392,53.409-56.392,53.409l0.982,3.085l3.458,12.202
		c2.617,9.236,12.283,14.42,21.472,11.642c18.071-5.463,47.912-19.517,77.335-54.944C282.268,319.8,266.633,311.982,252.211,300.365
		z"/>
</g>
<path style="fill:#E3AA75;" d="M260.533,296.144l-61.884-52.874c-5.09-4.357-12.736-4.489-17.989,0
	c-5.814,4.967-6.5,13.708-1.533,19.522l59.096,69.168c1.076,1.251,2.499,2.293,4.15,2.919c0,0,18.742,8.054,53.683,9.162
	l22.574-37.451C294.579,298.573,269.805,295.783,260.533,296.144z"/>
<path d="M308.476,176.811c-3.364-2.415-8.051-1.646-10.467,1.719c-1.957,2.727-5.766,4.42-9.94,4.42s-7.983-1.693-9.941-4.42
	c-2.416-3.364-7.103-4.134-10.467-1.719c-3.365,2.416-4.135,7.102-1.719,10.468c4.797,6.683,13.07,10.673,22.127,10.673
	s17.33-3.989,22.127-10.673C312.611,183.913,311.841,179.226,308.476,176.811z"/>
<path d="M15.109,248.713c1.834-61.603,26.856-119.542,70.46-163.144c21.786-21.787,47.152-38.934,74.767-50.869
	c-2.718,2.548-5.301,5.26-7.705,8.163c-16.035,19.37-21.497,43.224-16.237,70.9c1.948,10.249,6.266,18.879,10.442,27.226
	c8.959,17.909,16.037,32.056-0.704,58.187c-15.944,24.888-20.437,53.225-12.653,79.792c4.62,15.767,13.415,29.913,25.644,41.654
	c-3.349,0.146-6.672,0.665-9.859,1.567c-2.962,0.816-5.953,2.036-8.891,3.624c-0.058,0.031-0.115,0.063-0.171,0.096
	c-1.263,0.727-2.516,1.506-3.725,2.318c-0.172,0.115-0.34,0.238-0.502,0.368l-9.009,7.202c-1.915-2.97-3.792-5.766-5.792-8.563
	c-4.396-6.121-11.753-9.268-19.197-8.218c-10.999,1.554-18.682,11.767-17.129,22.766c1.115,7.893,6.033,30.175,6.834,33.612
	c0,0,0.359,1.363,0.493,1.695l0.836,2.077c0.035,0.088,0.072,0.175,0.111,0.261c0.834,1.866,1.842,3.654,2.957,5.26
	c2.274,3.34,5.279,6.349,8.669,8.685c6.887,4.782,15.273,6.87,23.588,5.884c4.082-0.465,8.259-1.761,12.122-3.769l7.007-3.699
	l11.539,36.391c6.175,19.473,24.189,32.087,43.712,32.087c3.743,0,7.542-0.464,11.324-1.432
	c45.396-11.623,130.085-51.871,187.229-190.846c1.312-3.19,3.484-6.245,6.458-9.081c23.042-21.973,34.599-52.855,31.707-84.727
	c-4.354-47.985-42.128-87.177-89.82-93.189c-32.31-4.072-63.94,6.689-86.775,29.525s-33.598,54.464-29.524,86.775
	c2.812,22.313,13.253,43.529,29.4,59.739c8.369,8.402,18.097,15.259,28.623,20.334c-5.421,2.376-12,4.753-18.786,7.2
	c-3.176,1.145-6.463,2.339-9.819,3.586l-59.183-50.566c-8.03-6.875-19.698-6.877-27.739-0.005c-4.335,3.704-6.969,8.874-7.415,14.56
	c-0.447,5.685,1.348,11.204,5.052,15.538l39.171,45.847c-6.079,4.542-11.397,9.409-16.017,14.657
	c-24.757-11.692-42.044-30.626-48.727-53.434c-6.545-22.338-2.678-46.303,10.889-67.481c21.339-33.311,10.793-54.392,1.488-72.99
	c-3.889-7.772-7.562-15.115-9.12-23.315c-4.386-23.076,0.006-42.769,13.055-58.532c21.761-26.288,63.526-36.55,88.507-37.392
	c59.918-0.809,117.415,20.377,162.345,59.922c3.109,2.737,7.848,2.435,10.586-0.675c2.737-3.109,2.435-7.848-0.675-10.586
	C376.16,20.758,313.408-1.822,248.266,0.115C182.827,2.063,121.278,28.645,74.962,74.961S2.063,182.827,0.115,248.267
	C-1.824,313.413,20.757,376.16,63.701,424.95c1.482,1.685,3.552,2.545,5.633,2.545c1.76,0,3.527-0.616,4.952-1.87
	c3.109-2.736,3.412-7.476,0.675-10.586C34.54,369.114,13.284,310.045,15.109,248.713z M222.39,324.963l10.176,11.91
	c1.906,2.214,4.336,3.935,7.036,4.984c2.097,0.873,21.597,8.602,56.248,9.701c0.081,0.002,0.162,0.003,0.242,0.003
	c4.032,0,7.363-3.203,7.492-7.262c0.131-4.14-3.118-7.603-7.258-7.734c-32.823-1.041-50.806-8.491-50.963-8.558
	c-0.101-0.043-0.202-0.084-0.304-0.123c-0.418-0.159-0.818-0.442-1.106-0.777l-59.1-69.172c-1.101-1.289-1.634-2.929-1.502-4.619
	c0.133-1.689,0.916-3.227,2.205-4.328c2.353-2.01,5.895-2.012,8.245,0l61.888,52.877c1.435,1.226,3.281,1.865,5.165,1.792
	c15.567-0.607,32.019,1.937,48.893,7.562c3.93,1.309,8.177-0.814,9.487-4.744c1.31-3.929-0.814-8.177-4.744-9.486
	c-6.327-2.109-12.613-3.818-18.837-5.136c5.626-2.373,10.428-4.815,14.217-7.634c4.1,1.075,8.265,1.893,12.472,2.438
	c7.244,0.939,14.552,1.141,21.719,0.602c4.13-0.311,7.227-3.912,6.916-8.042c-0.312-4.13-3.915-7.229-8.042-6.916
	c-6.151,0.463-12.431,0.288-18.665-0.52c-16.848-2.184-32.364-9.386-44.974-19.996c7.075-2.722,12.82-7.706,15.967-14.088
	c1.832-3.715,0.306-8.212-3.409-10.045c-3.715-1.833-8.212-0.305-10.044,3.409c-1.926,3.905-6.38,6.872-11.626,7.742
	c-1.112,0.184-2.221,0.26-3.317,0.248c-9.922-12.387-16.624-27.398-18.67-43.632c-3.488-27.678,5.714-54.757,25.25-74.292
	c19.535-19.535,46.617-28.736,74.293-25.249c40.753,5.136,73.034,38.638,76.756,79.66c2.476,27.288-7.409,53.72-27.119,72.516
	c-4.505,4.296-7.863,9.084-9.98,14.232c-54.654,132.92-134.404,171.093-177.076,182.018c-15.8,4.045-32.061-5.028-37.016-20.657
	L159.053,378.7c-0.672-2.119-2.249-3.83-4.305-4.673c-2.055-0.843-4.38-0.73-6.346,0.307l-14.904,7.867
	c-2.209,1.148-4.581,1.893-6.893,2.156c-4.705,0.559-9.425-0.616-13.321-3.32c-1.901-1.311-3.562-2.967-4.841-4.846
	c-0.6-0.864-1.128-1.796-1.574-2.772l-0.597-1.509c-1.014-4.351-5.59-25.28-6.571-32.226c-0.396-2.809,1.565-5.417,4.374-5.813
	c1.904-0.271,3.784,0.542,4.905,2.102c3.27,4.574,6.254,9.254,9.73,14.874c1.129,1.825,2.986,3.079,5.101,3.445
	c2.115,0.365,4.285-0.192,5.961-1.532l15.316-12.243c0.817-0.541,1.658-1.062,2.505-1.552c1.912-1.026,3.815-1.804,5.708-2.326
	c4.026-1.141,8.352-1.372,12.547-0.661c8.382,1.372,16.146,6.771,20.258,14.087c1.087,1.937,1.952,3.937,2.592,6.007l0.946,2.968
	l7.716,27.226c1.129,3.985,5.275,6.3,9.261,5.171c3.985-1.129,6.3-5.275,5.171-9.261l-7.749-27.341
	c-0.022-0.078-0.045-0.155-0.07-0.232l-0.964-3.023c-0.497-1.607-1.101-3.203-1.794-4.777
	C206.542,338.666,213.524,331.462,222.39,324.963z"/>
<path d="M448.3,87.051c-2.736-3.109-7.476-3.412-10.586-0.675c-3.109,2.736-3.412,7.476-0.675,10.586
	c40.421,45.925,61.677,104.994,59.851,166.325c-1.833,61.603-26.856,119.542-70.46,163.145
	c-43.602,43.602-101.542,68.626-163.144,70.459c-61.337,1.825-120.401-19.43-166.325-59.851c-3.108-2.736-7.848-2.435-10.586,0.675
	c-2.737,3.109-2.435,7.849,0.675,10.586c46.853,41.238,106.579,63.699,168.942,63.699c2.576,0,5.157-0.038,7.741-0.115
	c65.44-1.947,126.987-28.528,173.305-74.846s72.899-107.864,74.846-173.306C513.823,198.587,491.242,135.84,448.3,87.051z"/>
<g>
</g>
<g>
</g>
<g>
</g>
<g>
</g>
<g>
</g>
<g>
</g>
<g>
</g>
<g>
</g>
<g>
</g>
<g>
</g>
<g>
</g>
<g>
</g>
<g>
</g>
<g>
</g>
<g>
</g>
</svg>
