<svg id="Capa_1" enable-background="new 0 0 512.126 512.126" height="512" viewBox="0 0 512.126 512.126" width="512" xmlns="http://www.w3.org/2000/svg"><g><g><g><g><path d="m164.762 7.503c-37.181 0-67.322 38.703-67.322 86.445 0 34.862 16.074 64.894 39.223 78.565 5.269 3.112 8.329 8.935 8.103 15.05 0 0-10.795 284.449-10.798 284.524-.225 5.928 1.047 11.738 4.036 16.895 8.116 13.99 27.199 19.729 41.534 12.103 10.43-5.548 16.684-16.654 16.019-28.449l-10.827-285.056c-.227-6.118 2.837-11.943 8.109-15.054 23.16-13.665 39.245-43.705 39.245-78.577 0-47.743-30.141-86.446-67.322-86.446z" fill="#94dfb6"/></g><g><path d="m184.725 187.575 10.832 285.06c.66 11.792-5.591 22.904-16.023 28.455-7.461 3.971-16.223 4.311-24.034 1.76 1.37-.48 2.72-1.06 4.031-1.76 10.432-5.551 16.683-16.663 16.023-28.455l-10.782-291.821c-.22-6.121 2.841-11.942 8.111-15.053 23.164-13.662 39.197-36.936 39.197-71.812 0-43.378-24.884-79.294-57.32-85.495 3.261-.63 6.601-.95 10.002-.95 37.176 0 67.322 38.707 67.322 86.445 0 34.876-16.083 64.911-39.247 78.574-5.271 3.11-8.332 8.941-8.112 15.052z" fill="#6ae0aa"/></g><g><path d="m394.987 7.59c-7.242.799-12.579 7.191-12.579 14.477v67.985c0 6.675-5.411 12.086-12.086 12.086s-12.086-5.411-12.086-12.086v-69.582c0-6.241-4.381-11.824-10.544-12.804-7.882-1.253-14.684 4.804-14.684 12.449v69.937c0 6.675-5.411 12.086-12.086 12.086s-12.086-5.411-12.086-12.086v-67.985c0-7.286-5.337-13.678-12.579-14.477-8.562-.945-15.808 5.734-15.808 14.104v79.232c0 25.55 14.846 47.624 36.379 58.087 5.937 2.885 9.518 9.104 9.273 15.7 0 0-11.267 297.18-11.274 297.372-.891 23.503 24.302 40.311 45.57 28.998 10.43-5.548 16.684-16.654 16.019-28.449l-11.303-297.907c-.245-6.599 3.339-12.82 9.28-15.704 21.546-10.459 36.402-32.539 36.402-58.098v-79.231c-.001-8.37-7.247-15.048-15.808-14.104z" fill="#94dfb6"/></g><g><path d="m410.794 21.696v79.234c0 25.554-14.853 47.638-36.406 58.09-5.941 2.891-9.522 9.112-9.272 15.713l11.302 297.902c.03.57.05 1.14.05 1.7 0 11.152-6.141 21.474-16.073 26.755-6.911 3.671-14.893 4.501-22.294 2.44 2.11-.58 4.161-1.39 6.131-2.44 9.932-5.281 16.073-15.603 16.073-26.755 0-.56-.02-1.13-.05-1.7l-14.623-307.443c-.24-6.601 3.341-12.822 9.282-15.703 21.544-10.462 39.717-21.144 39.717-48.558v-79.235c0-4.821-2.4-9.082-6.071-11.642 1.85-1.32 4.031-2.2 6.431-2.46 8.562-.95 15.803 5.731 15.803 14.102z" fill="#6ae0aa"/></g></g><g><g><path d="m471.659 9.446c-3.582 8.309-10.996 20.538-25.181 27.222-2.442 1.151-2.442 4.632 0 5.783 14.184 6.683 21.598 18.913 25.181 27.222 1.118 2.594 4.772 2.594 5.89 0 3.582-8.309 10.996-20.538 25.181-27.222 2.442-1.151 2.442-4.632 0-5.783-14.185-6.683-21.598-18.913-25.181-27.222-1.118-2.593-4.771-2.593-5.89 0z" fill="#fef0ae"/></g><g><path d="m502.726 42.449c-14.183 6.681-21.594 18.913-25.174 27.225-1.12 2.591-4.771 2.591-5.891 0-1.8-4.191-4.581-9.372-8.711-14.333 3.951-8.752 11.762-21.024 26.235-27.845.1-.05.2-.1.3-.18 3.561 3.561 7.931 6.851 13.242 9.352 2.45 1.15 2.45 4.631-.001 5.781z" fill="#fee45a"/></g></g><g><g><path d="m64.535 321.29c-3.582 8.309-10.996 20.538-25.181 27.222-2.442 1.151-2.442 4.632 0 5.783 14.184 6.683 21.598 18.913 25.181 27.222 1.118 2.594 4.772 2.594 5.89 0 3.582-8.309 10.996-20.538 25.181-27.222 2.442-1.151 2.442-4.632 0-5.783-14.185-6.683-21.598-18.913-25.181-27.222-1.118-2.594-4.772-2.594-5.89 0z" fill="#fef0ae"/></g><g><path d="m95.602 354.292c-14.183 6.681-21.594 18.913-25.174 27.225-1.12 2.591-4.771 2.591-5.891 0-1.8-4.191-4.581-9.372-8.711-14.333 3.951-8.751 11.762-21.024 26.235-27.845.1-.05.2-.1.3-.18 3.561 3.561 7.931 6.851 13.242 9.352 2.449 1.15 2.449 4.631-.001 5.781z" fill="#fee45a"/></g></g><g><g><path d="m34.577 409.818c-3.582 8.309-10.996 20.538-25.181 27.222-2.442 1.151-2.442 4.632 0 5.783 14.184 6.683 21.598 18.913 25.181 27.222 1.118 2.594 4.772 2.594 5.89 0 3.582-8.309 10.996-20.538 25.181-27.222 2.442-1.151 2.442-4.632 0-5.783-14.185-6.683-21.598-18.913-25.181-27.222-1.119-2.593-4.772-2.593-5.89 0z" fill="#fef0ae"/></g><g><path d="m65.644 442.821c-14.183 6.681-21.594 18.913-25.174 27.225-1.12 2.591-4.771 2.591-5.891 0-1.8-4.191-4.581-9.372-8.711-14.333 3.951-8.752 11.762-21.024 26.235-27.845.1-.05.2-.1.3-.18 3.561 3.561 7.931 6.851 13.242 9.352 2.449 1.15 2.449 4.631-.001 5.781z" fill="#fee45a"/></g><g><path d="m164.761.002c-21.594 0-42.114 11.655-56.299 31.977-2.37 3.397-1.539 8.073 1.858 10.444 3.399 2.372 8.074 1.539 10.445-1.858 11.338-16.245 27.374-25.561 43.996-25.561 32.985 0 59.821 35.414 59.821 78.944 0 31.065-13.957 59.373-35.556 72.116-7.606 4.488-12.124 12.838-11.792 21.8l10.827 285.056c.001.046.004.091.006.137.498 8.844-4.233 17.246-12.053 21.405-10.646 5.665-25.379 1.345-31.521-9.241-2.191-3.78-3.211-8.103-3.031-12.842.003-.077 9.693-255.417 10.799-284.538.331-8.95-4.183-17.298-11.784-21.787-21.587-12.749-35.536-41.052-35.536-72.106 0-8.362.99-16.593 2.944-24.463.998-4.021-1.452-8.089-5.474-9.087-4.015-.995-8.088 1.453-9.088 5.474-2.246 9.051-3.385 18.498-3.385 28.077 0 36.256 16.843 69.63 42.909 85.023 2.855 1.686 4.549 4.872 4.422 8.307 0 0-10.78 284.047-10.798 284.525-.285 7.517 1.458 14.758 5.043 20.943 7.07 12.187 20.605 19.215 34.164 19.214 5.973 0 11.952-1.365 17.382-4.253 12.945-6.885 20.785-20.781 19.99-35.419l-10.824-284.987c-.128-3.444 1.568-6.631 4.425-8.316 26.082-15.388 42.934-48.767 42.934-85.038 0-51.802-33.565-93.946-74.824-93.946z"/><path d="m411.072 5.531c-4.587-4.109-10.741-6.078-16.907-5.397-10.979 1.211-19.258 10.64-19.258 21.933v67.985c0 2.528-2.057 4.585-4.585 4.585s-4.585-2.056-4.585-4.585v-69.582c0-9.994-7.252-18.684-16.869-20.212-5.871-.934-11.817.726-16.302 4.555-4.487 3.83-7.06 9.407-7.06 15.303v69.938c0 2.528-2.057 4.585-4.585 4.585s-4.585-2.056-4.585-4.585v-67.987c0-11.292-8.279-20.722-19.258-21.933-6.166-.681-12.321 1.288-16.908 5.397-4.591 4.112-7.223 10.003-7.223 16.164v79.232c0 27.821 15.557 52.664 40.602 64.835 3.208 1.559 5.193 4.964 5.055 8.668 0 0-11.263 297.096-11.271 297.309-.825 21.774 16.95 40.388 38.835 40.386 6.11 0 12.218-1.475 17.752-4.419 12.945-6.885 20.785-20.782 19.99-35.419l-3.639-95.904c-.156-4.14-3.625-7.36-7.78-7.212-4.14.157-7.368 3.64-7.211 7.78l3.641 95.966c.001.046.004.092.006.138.498 8.843-4.233 17.245-12.053 21.405-15.452 8.221-35.692-4.334-34.558-21.954.003-.045.005-.091.007-.137l11.274-297.379c.357-9.649-4.939-18.569-13.491-22.724-19.834-9.639-32.156-29.312-32.156-51.341v-79.23c0-1.929.792-3.7 2.231-4.989 1.435-1.286 3.297-1.873 5.253-1.66 3.308.365 5.9 3.449 5.9 7.021v67.985c0 10.801 8.787 19.587 19.587 19.587s19.587-8.787 19.587-19.587v-69.937c0-1.499.655-2.917 1.797-3.893.671-.572 2.109-1.481 4.207-1.148 2.407.383 4.221 2.702 4.221 5.396v69.583c0 10.801 8.787 19.587 19.587 19.587 10.801 0 19.587-8.787 19.587-19.587v-67.986c0-3.572 2.592-6.656 5.9-7.021 1.952-.214 3.817.374 5.253 1.66 1.439 1.288 2.231 3.06 2.231 4.988v79.232c0 22.04-12.329 41.716-32.177 51.35-8.558 4.155-13.857 13.077-13.5 22.737l6.343 167.127c.158 4.139 3.632 7.375 7.781 7.211 4.14-.157 7.369-3.641 7.211-7.781l-6.343-167.119c-.138-3.713 1.848-7.119 5.059-8.678 25.06-12.165 40.627-37.013 40.627-64.847v-79.231c.004-6.16-2.629-12.052-7.22-16.164z"/><path d="m505.927 29.883c-11.823-5.57-18.211-15.803-21.49-23.406-1.696-3.935-5.556-6.477-9.833-6.477s-8.137 2.542-9.833 6.476h-.001c-3.277 7.603-9.665 17.835-21.488 23.406-3.785 1.783-6.137 5.491-6.137 9.677s2.352 7.895 6.136 9.677c11.824 5.571 18.212 15.803 21.49 23.406 1.696 3.934 5.556 6.476 9.833 6.476s8.137-2.542 9.833-6.476c3.279-7.604 9.668-17.836 21.491-23.406 3.784-1.783 6.135-5.491 6.135-9.677s-2.351-7.893-6.136-9.676zm-31.323 29.034c-3.942-6.699-9.702-13.835-18.015-19.357 8.313-5.521 14.074-12.658 18.015-19.357 3.943 6.7 9.703 13.836 18.016 19.357-8.312 5.521-14.074 12.658-18.016 19.357z"/><path d="m98.803 341.726c-11.821-5.57-18.211-15.802-21.49-23.406-1.696-3.934-5.556-6.476-9.833-6.476s-8.137 2.542-9.833 6.476h-.001c-3.277 7.603-9.665 17.835-21.488 23.406-3.785 1.783-6.137 5.491-6.137 9.678 0 4.186 2.352 7.895 6.136 9.677 11.824 5.571 18.212 15.802 21.489 23.405 1.697 3.935 5.557 6.477 9.834 6.477s8.137-2.542 9.833-6.477c3.279-7.603 9.668-17.836 21.491-23.406 3.784-1.783 6.135-5.491 6.135-9.677-.001-4.186-2.351-7.894-6.136-9.677zm-31.323 29.034c-3.942-6.699-9.702-13.836-18.015-19.356 8.313-5.521 14.073-12.658 18.015-19.357 3.943 6.7 9.703 13.836 18.016 19.357-8.312 5.52-14.073 12.657-18.016 19.356z"/><path d="m68.844 430.254c-11.822-5.57-18.211-15.803-21.49-23.406-1.696-3.934-5.556-6.476-9.833-6.476s-8.137 2.542-9.833 6.476c-3.279 7.603-9.668 17.836-21.489 23.406-3.785 1.783-6.137 5.491-6.137 9.677 0 4.187 2.352 7.895 6.136 9.677 11.823 5.57 18.211 15.803 21.49 23.406 1.696 3.934 5.556 6.476 9.833 6.476s8.137-2.542 9.833-6.477c3.279-7.603 9.668-17.835 21.491-23.406 3.784-1.784 6.135-5.491 6.135-9.677 0-4.184-2.351-7.892-6.136-9.676zm-31.322 29.035c-3.942-6.699-9.703-13.836-18.016-19.357 8.314-5.521 14.074-12.658 18.016-19.357 3.943 6.699 9.703 13.836 18.016 19.357-8.314 5.52-14.073 12.657-18.016 19.357z"/></g></g></g></g></svg>