<svg id="Capa_1" enable-background="new 0 0 511.967 511.967" height="512" viewBox="0 0 511.967 511.967" width="512" xmlns="http://www.w3.org/2000/svg"><g><path d="m176.243 423.094-87.37-87.37c-4.078-4.078-4.078-10.69 0-14.768l221.91-221.91 102.138 102.138-221.91 221.91c-4.078 4.078-10.69 4.078-14.768 0z" fill="#d3effb"/><path d="m396.433 184.696-221.91 221.91c-4.078 4.078-10.69 4.078-14.768 0l16.488 16.488c4.078 4.078 10.69 4.078 14.768 0l221.91-221.91z" fill="#bed8fb"/><path d="m114.464 328.339 117.681-117.681c18.95 50.213 58.149 11.014 69.163 69.163l-117.681 117.681z" fill="#f9f6f9"/><g><path d="m279.367 245.532c.022.046.044.093.066.139 4.463 9.439 2.364 20.687-5.019 28.07l-107.275 107.273 16.488 16.488 117.68-117.68c-4.16-21.969-12.346-30.04-21.94-34.29z" fill="#dddaec"/></g><path d="m283.906 118.208h182.322v37.381h-182.322z" fill="#d0cee7" transform="matrix(.707 .707 -.707 .707 206.657 -225.116)"/><path d="m412.594 181.457h37.381v23.317h-37.381z" fill="#beb9dd" transform="matrix(.707 -.707 .707 .707 -10.233 361.526)"/><path d="m378.036 73.062h62.432v59.306h-62.432z" fill="#7398d3" transform="matrix(.707 .707 -.707 .707 192.497 -259.3)"/><path d="m393.427 104.885h59.306v23.317h-59.306z" fill="#707dd3" transform="matrix(.707 -.707 .707 .707 41.509 333.298)"/><path d="m369.586 53.769h144.445v32.779h-144.445z" fill="#d0cee7" transform="matrix(.707 .707 -.707 .707 179.012 -291.857)"/><path d="m468.244 101.325h32.779v23.317h-32.779z" fill="#beb9dd" transform="matrix(.707 -.707 .707 .707 62.055 375.78)"/><path d="m132.511 429.369-49.914-49.914c-2.506-2.506-2.506-6.569 0-9.075l20.466-20.466 58.989 58.989-20.466 20.466c-2.506 2.506-6.569 2.506-9.075 0z" fill="#7398d3"/><path d="m148.109 394.96-20.466 20.466c-2.506 2.506-6.569 2.506-9.075 0l13.943 13.943c2.506 2.506 6.569 2.506 9.075 0l20.466-20.466z" fill="#707dd3"/><g><path d="m348.887 206.69c1.919 0 3.839-.732 5.304-2.196 2.929-2.93 2.929-7.678 0-10.607l-5.009-5.009c-2.93-2.928-7.678-2.928-10.607 0-2.929 2.93-2.929 7.678 0 10.607l5.009 5.009c1.464 1.464 3.384 2.196 5.303 2.196z"/><path d="m312.955 242.623c1.919 0 3.839-.732 5.303-2.196 2.93-2.929 2.93-7.678.001-10.606l-5.009-5.01c-2.929-2.929-7.678-2.93-10.606-.001-2.93 2.929-2.93 7.678-.001 10.606l5.009 5.01c1.464 1.464 3.383 2.197 5.303 2.197z"/><path d="m277.023 278.554c1.919 0 3.839-.732 5.304-2.196 2.929-2.93 2.929-7.678 0-10.607l-5.009-5.009c-2.93-2.928-7.678-2.928-10.607 0-2.929 2.93-2.929 7.678 0 10.607l5.009 5.009c1.464 1.464 3.384 2.196 5.303 2.196z"/><path d="m241.091 314.487c1.919 0 3.839-.732 5.304-2.197 2.929-2.929 2.928-7.678 0-10.606l-5.009-5.009c-2.93-2.928-7.678-2.929-10.607.001-2.929 2.929-2.928 7.678 0 10.606l5.009 5.009c1.465 1.464 3.384 2.196 5.303 2.196z"/><path d="m194.846 332.606c-2.929 2.93-2.929 7.678 0 10.607l5.009 5.009c1.464 1.464 3.384 2.196 5.303 2.196s3.839-.732 5.303-2.196c2.929-2.93 2.929-7.678 0-10.607l-5.009-5.009c-2.928-2.928-7.677-2.928-10.606 0z"/><path d="m269.611 234.464c-12.237-3.326-22.805-6.199-30.449-26.453-.899-2.383-2.947-4.146-5.437-4.684-2.489-.538-5.082.229-6.883 2.028l-117.681 117.68c-1.407 1.407-2.197 3.314-2.197 5.304s.79 3.896 2.197 5.304l69.163 69.163c1.406 1.406 3.314 2.196 5.303 2.196s3.897-.79 5.303-2.196l27.815-27.815c2.929-2.93 2.929-7.678 0-10.607-2.929-2.928-7.678-2.928-10.606 0l-22.512 22.513-58.557-58.557 104.77-104.77c10.276 18.422 24.271 22.225 35.836 25.368 12.856 3.495 22.329 6.07 27.462 28.445l-65.795 65.796c-2.929 2.93-2.929 7.678 0 10.607 2.929 2.928 7.678 2.928 10.606 0l68.662-68.662c1.754-1.755 2.527-4.263 2.065-6.699-6.658-35.153-23.875-39.833-39.065-43.961z"/><path d="m509.77 104.334-53.743-53.742c-2.93-2.928-7.678-2.928-10.607 0-2.929 2.93-2.929 7.678 0 10.607l48.44 48.438-12.571 12.572c-8.661-8.661-82.027-82.027-91.532-91.532l12.571-12.571 21.888 21.889c2.93 2.928 7.678 2.928 10.607 0 2.929-2.93 2.929-7.678 0-10.607l-27.192-27.192c-2.93-2.928-7.678-2.928-10.607 0l-23.178 23.178c-2.929 2.93-2.929 7.678 0 10.607l23.692 23.692-31.328 31.329-37.084-37.084c-2.929-2.927-7.678-2.929-10.606 0l-26.432 26.432c-1.407 1.407-2.197 3.314-2.197 5.304s.79 3.896 2.196 5.304l8.088 8.088-51.142 51.143c-2.929 2.93-2.929 7.678 0 10.607 2.929 2.928 7.677 2.928 10.606 0l51.142-51.143 91.532 91.532-216.605 216.605c-1.147 1.148-3.014 1.149-4.162 0l-87.37-87.37c-1.147-1.146-1.147-3.014 0-4.16l144.26-144.26c2.929-2.93 2.929-7.678 0-10.607-2.929-2.928-7.678-2.928-10.606 0l-144.26 144.26c-6.996 6.996-6.996 18.379 0 25.375l8.887 8.887-15.162 15.162c-2.628 2.629-4.076 6.124-4.076 9.841 0 3.718 1.448 7.213 4.076 9.842l19.653 19.653-94.75 94.751c-2.929 2.93-2.929 7.678 0 10.607 2.93 2.929 7.678 2.928 10.606 0l94.751-94.751 19.653 19.654c2.713 2.713 6.276 4.069 9.84 4.069s7.128-1.357 9.841-4.069l15.163-15.163 8.887 8.887c3.498 3.497 8.093 5.246 12.687 5.246 4.595 0 9.189-1.749 12.688-5.246l216.606-216.605 8.088 8.088c1.465 1.464 3.385 2.196 5.304 2.196s3.839-.732 5.304-2.196l26.433-26.433c1.406-1.407 2.196-3.314 2.196-5.304s-.79-3.896-2.196-5.304l-37.084-37.084 31.328-31.328 23.692 23.692c1.407 1.406 3.314 2.196 5.304 2.196s3.896-.79 5.304-2.197l23.178-23.179c2.928-2.929 2.928-7.677-.001-10.606zm-372.721 318.966-24.187-24.188c-.002-.001-.003-.003-.005-.005s-.003-.003-.005-.004l-24.186-24.187 14.397-14.396 48.383 48.383zm289.263-219.331c-7.837-7.837-1.81-1.811-118.315-118.315l15.826-15.825c38.457 38.457 80.998 80.998 118.315 118.314zm-15.955-68.82-33.54-33.539 31.328-31.329 33.54 33.54z"/></g></g></svg>